<svg width="61" height="52" viewBox="0 0 61 52" fill="none" xmlns="http://www.w3.org/2000/svg">
<g clip-path="url(#clip0_748_26907)">
<path d="M27.2553 38.6396C30.5147 37.3965 33.6086 35.7958 36.5318 33.8377C38.5372 32.4943 40.4156 31.0118 42.1719 29.3898C42.9835 28.6494 43.7635 27.8767 44.5171 27.0762C46.9161 24.5332 48.81 21.8512 50.1997 19.0446C50.5596 18.309 50.8811 17.5858 51.1493 16.8757C51.9138 14.881 52.3078 13.0035 52.3406 11.238C52.3393 11.2184 52.3429 11.1986 52.3416 11.1791C52.3659 9.20775 52.0031 7.47756 51.2382 5.98484L50.7242 5.10466C49.6072 3.40884 47.9463 2.11177 45.7372 1.22363C43.5329 0.335182 40.8778 -0.0082449 37.7668 0.193683C34.6559 0.395612 31.4804 1.1175 28.221 2.36059C24.9615 3.60369 21.868 5.20936 18.9447 7.16744C16.0214 9.12552 13.3578 11.3761 10.9591 13.924C8.56062 16.4718 6.66644 19.1491 5.27708 21.9605C3.89229 24.7668 3.17725 27.3723 3.1359 29.7622C3.09486 32.157 3.63058 34.205 4.75251 35.9005C5.67898 37.309 6.98026 38.4379 8.66123 39.2866C9.00166 39.461 9.3659 39.624 9.73929 39.7766C11.9434 40.665 14.5985 41.0086 17.7094 40.8066C20.8203 40.6047 23.9958 39.8827 27.2553 38.6396ZM27.7383 20.5026L26.7136 18.9432L24.9706 16.3056L20.6829 9.80525C23.1214 8.17336 25.6457 6.8798 28.2558 5.92445C30.8659 4.96911 33.3645 4.41401 35.7613 4.25844C40.7799 3.93269 44.2485 5.23017 46.1769 8.15046C46.5035 8.64011 46.7679 9.15836 46.9698 9.6954C47.5125 11.0945 47.6478 12.6478 47.3806 14.3598C47.1461 15.8928 46.5856 17.5502 45.7044 19.3364L27.7383 20.5026Z" stroke="#BCBCBC" stroke-width="0.597396" stroke-linecap="round" stroke-linejoin="round"/>
<path d="M26.7137 18.9424L24.9706 16.3048L20.6829 9.80447C23.1214 8.17258 25.6458 6.87901 28.2559 5.92367C30.866 4.96832 33.3646 4.41323 35.7614 4.25766C40.78 3.93191 44.2486 5.22939 46.177 8.14968C46.5035 8.63933 46.768 9.15757 46.9699 9.69462C47.5126 11.0937 47.6478 12.6469 47.3807 14.3589C45.6976 13.7805 43.665 13.5687 41.2878 13.723C38.9106 13.8773 36.3924 14.4337 33.7823 15.389C31.3497 16.2788 28.9951 17.4632 26.7137 18.9424Z" stroke="#BCBCBC" stroke-width="0.597396" stroke-linecap="round" stroke-linejoin="round"/>
<path d="M23.2355 50.2719C20.1246 50.4738 17.4694 50.1299 15.2652 49.2417C13.0561 48.3535 11.3956 47.0613 10.2786 45.3655L9.76463 44.4853L4.75217 35.9002C5.67865 37.3087 6.97993 38.4376 8.6609 39.2864C9.00133 39.4607 9.36557 39.6237 9.73896 39.7763C11.943 40.6648 14.5982 41.0082 17.7091 40.8063C20.8201 40.6044 23.9955 39.8825 27.255 38.6394C30.5145 37.3963 33.6083 35.7955 36.5316 33.8374C38.5369 32.494 40.4152 31.0115 42.1716 29.3895C42.9832 28.6492 43.7632 27.8764 44.5168 27.0759C46.9158 24.533 48.8097 21.8509 50.1994 19.0444C50.5593 18.3088 50.8808 17.5855 51.1491 16.8755C51.9136 14.8807 52.3075 13.0033 52.3402 11.2377C52.339 11.2181 52.3425 11.1983 52.3413 11.1787C52.3656 9.20745 52.0028 7.4773 51.2379 5.98458L56.2503 14.5697C57.3722 16.2652 57.9077 18.3082 57.8666 20.703C57.8256 23.0979 57.1103 25.6986 55.7258 28.5097C54.3361 31.3163 52.4422 33.9983 50.0432 36.5413C47.6445 39.0891 44.9812 41.3447 42.058 43.3027C39.1347 45.2608 36.0409 46.8616 32.7814 48.1047C29.5219 49.3476 26.3416 50.0703 23.2355 50.2719Z" stroke="#BCBCBC" stroke-width="0.597396" stroke-linecap="round" stroke-linejoin="round"/>
</g>
<defs>
<clipPath id="clip0_748_26907">
<rect width="57.35" height="57.35" fill="white" transform="translate(57.2305 -5) rotate(86.2862)"/>
</clipPath>
</defs>
</svg>
