<svg width="796" height="515" viewBox="0 0 796 515" fill="none" xmlns="http://www.w3.org/2000/svg">
<path d="M771.573 486.75L661.526 229.431M771.573 486.75L784.963 612.894M771.573 486.75L297.286 757.579L263.898 646.283M771.573 486.75L742.468 146.465M771.573 486.75L595.704 338.681M572.995 319.479L829.987 338.197M572.995 319.479L455.629 302.785M572.995 319.479L490.03 421.163M572.995 319.479L297.286 164.171M572.995 319.479L252.262 302.785M572.995 319.479L595.704 338.681M829.987 338.197L588.172 117.124M829.987 338.197L742.468 146.465M829.987 338.197L581.09 18.4756M829.987 338.197L784.963 612.894M829.987 338.197L948.365 319.479M829.987 338.197L899.799 657.32L955.447 617.953L960 508.681M829.987 338.197L955.447 434.646M829.987 338.197L948.365 258.773V319.479M588.172 117.124L661.526 229.431M588.172 117.124L392.899 70.5821M588.172 117.124L455.629 302.785M588.172 117.124L343.322 18.4756L297.792 160.63M661.526 229.431L424.55 187.741L742.468 146.465M661.526 229.431L595.704 338.681M784.963 612.894L960 508.681M490.03 421.163L377.723 612.894M490.03 421.163L543.148 626.048M490.03 421.163L155.132 378.668M377.723 612.894L263.898 522.846M377.723 612.894L263.898 646.283M377.723 612.894L595.255 751.508M377.723 612.894L155.132 378.668M377.723 612.894L742.468 146.465M263.898 522.846L455.629 302.785M263.898 522.846L252.262 302.785M263.898 522.846L126.802 633.13M263.898 522.846V646.283M263.898 522.846L155.132 378.668M455.629 302.785L392.899 70.5821M455.629 302.785H252.262M455.629 302.785L297.286 164.171M455.629 302.785L155.132 378.668M455.629 302.785L543.148 9.36963M455.629 302.785L377.723 488.446M297.286 164.171L392.899 70.5821M297.286 164.171L252.262 302.785M297.286 164.171L377.723 488.446M392.899 70.5821L543.148 9.36963M392.899 70.5821L138.437 43.2642M392.899 70.5821L252.262 302.785M252.262 302.785L0.83578 241.066L138.437 43.2642M252.262 302.785L543.148 626.048M252.262 302.785L297.792 160.63M252.262 302.785L248.721 294.711M138.437 43.2642L248.721 294.711M155.132 378.668L126.802 633.13M126.802 633.13L263.898 646.283M126.802 633.13L248.721 764.661L543.148 626.048M126.802 633.13L377.723 488.446M263.898 646.283L543.148 626.048M263.898 646.283L377.723 488.446M263.898 646.283L223.427 730.26M263.898 646.283L343.322 757.579M543.148 626.048L377.723 488.446M543.148 626.048L595.255 751.508M543.148 626.048L430.841 751.508M377.723 488.446L595.255 751.508M343.322 757.579L297.792 0.769531L248.721 294.711M343.322 757.579L595.704 338.681M742.468 146.465L938.753 31.6287L921.047 0.769531L742.468 146.465ZM742.468 146.465V0.769531H681.761L742.468 146.465ZM742.468 146.465L543.148 9.36963M742.468 146.465L812.281 43.2642M742.468 146.465L595.255 9.36963H543.148M543.148 9.36963L297.792 160.63M948.365 319.479L955.447 434.646M960 508.681L955.447 434.646M595.704 338.681L733.868 751.508" stroke="#A3A3A3" stroke-opacity="0.3" stroke-width="1.01178"/>
</svg>
