<svg width="581" height="500" viewBox="0 0 581 500" fill="none" xmlns="http://www.w3.org/2000/svg">
<circle cx="197" cy="254.65" r="3" fill="#D9D9D9"/>
<circle cx="99" cy="270.65" r="3" fill="#D9D9D9"/>
<circle cx="84" cy="98.6499" r="3" fill="#D9D9D9"/>
<circle cx="23" cy="192.65" r="3" fill="#D9D9D9"/>
<circle cx="168" cy="357.65" r="3" fill="#D9D9D9"/>
<circle cx="416" cy="322.65" r="3" fill="#D9D9D9"/>
<path d="M-71.6801 411.56L21.3681 193.99M-71.6801 411.56L-83.0011 518.219M-71.6801 411.56L329.343 640.553L357.574 546.45M-71.6801 411.56L-47.0707 123.84M-71.6801 411.56L77.0224 286.363M96.2231 270.128L-121.07 285.954M96.2231 270.128L195.459 256.012M96.2231 270.128L166.373 356.104M96.2231 270.128L329.343 138.811M96.2231 270.128L367.412 256.012M96.2231 270.128L77.0224 286.363M-121.07 285.954L83.3908 99.0307M-121.07 285.954L-47.0707 123.84M-121.07 285.954L89.3792 15.6209M-121.07 285.954L-83.0011 518.219M-121.07 285.954L-221.162 270.128M-121.07 285.954L-180.099 555.781L-227.15 522.496L-231 430.104M-121.07 285.954L-227.15 367.504M-121.07 285.954L-221.162 218.799V270.128M83.3908 99.0307L21.3681 193.99M83.3908 99.0307L248.499 59.6784M83.3908 99.0307L195.459 256.012M83.3908 99.0307L290.418 15.6209L328.915 135.817M21.3681 193.99L221.738 158.74L-47.0707 123.84M21.3681 193.99L77.0224 286.363M-83.0011 518.219L-231 430.104M166.373 356.104L261.332 518.219M166.373 356.104L121.46 529.34M166.373 356.104L449.539 320.174M261.332 518.219L357.574 442.08M261.332 518.219L357.574 546.45M261.332 518.219L77.4024 635.42M261.332 518.219L449.539 320.174M261.332 518.219L-47.0707 123.84M357.574 442.08L195.459 256.012M357.574 442.08L367.412 256.012M357.574 442.08L473.492 535.328M357.574 442.08V546.45M357.574 442.08L449.539 320.174M195.459 256.012L248.499 59.6784M195.459 256.012H367.412M195.459 256.012L329.343 138.811M195.459 256.012L449.539 320.174M195.459 256.012L121.46 7.92153M195.459 256.012L261.332 412.994M329.343 138.811L248.499 59.6784M329.343 138.811L367.412 256.012M329.343 138.811L261.332 412.994M248.499 59.6784L121.46 7.92153M248.499 59.6784L463.654 36.5803M248.499 59.6784L367.412 256.012M367.412 256.012L580 203.828L463.654 36.5803M367.412 256.012L121.46 529.34M367.412 256.012L328.915 135.817M367.412 256.012L370.406 249.185M463.654 36.5803L370.406 249.185M449.539 320.174L473.492 535.328M473.492 535.328L357.574 546.45M473.492 535.328L370.406 646.541L121.46 529.34M473.492 535.328L261.332 412.994M357.574 546.45L121.46 529.34M357.574 546.45L261.332 412.994M357.574 546.45L391.793 617.455M357.574 546.45L290.418 640.553M121.46 529.34L261.332 412.994M121.46 529.34L77.4024 635.42M121.46 529.34L216.419 635.42M261.332 412.994L77.4024 635.42M290.418 640.553L328.915 0.649902L370.406 249.185M290.418 640.553L77.0224 286.363M-47.0707 123.84L-213.035 26.7422L-198.064 0.649902L-47.0707 123.84ZM-47.0707 123.84V0.649902H4.25842L-47.0707 123.84ZM-47.0707 123.84L121.46 7.92153M-47.0707 123.84L-106.099 36.5803M-47.0707 123.84L77.4024 7.92153H121.46M121.46 7.92153L328.915 135.817M-221.162 270.128L-227.15 367.504M-231 430.104L-227.15 367.504M77.0224 286.363L-39.7991 635.42" stroke="#A3A3A3" stroke-opacity="0.3" stroke-width="0.855485"/>
<circle cx="367" cy="255.65" r="3" fill="#D9D9D9"/>
<circle cx="329" cy="137.65" r="3" fill="#D9D9D9"/>
<circle cx="248" cy="58.6499" r="3" fill="#D9D9D9"/>
<circle cx="261" cy="413.65" r="3" fill="#D9D9D9"/>
</svg>
