<svg width="1440" height="178" viewBox="0 0 1440 178" fill="none" xmlns="http://www.w3.org/2000/svg">
<g clip-path="url(#clip0_564_1311)">
<path d="M105.23 0H33.2299C30.1711 0 27.6914 2.47965 27.6914 5.53846C27.6914 8.59727 30.1711 11.0769 33.2299 11.0769H105.23C108.289 11.0769 110.768 8.59727 110.768 5.53846C110.768 2.47965 108.289 0 105.23 0Z" fill="#234EEE" fill-opacity="0.2"/>
<path d="M188.308 0H171.693C168.634 0 166.154 2.47965 166.154 5.53846C166.154 8.59727 168.634 11.0769 171.693 11.0769H188.308C191.367 11.0769 193.847 8.59727 193.847 5.53846C193.847 2.47965 191.367 0 188.308 0Z" fill="#234EEE" fill-opacity="0.2"/>
<path d="M354.462 0H337.847C334.788 0 332.309 2.47965 332.309 5.53846C332.309 8.59727 334.788 11.0769 337.847 11.0769H354.462C357.521 11.0769 360.001 8.59727 360.001 5.53846C360.001 2.47965 357.521 0 354.462 0Z" fill="#234EEE" fill-opacity="0.2"/>
<path d="M659.077 0H420.923C417.864 0 415.385 2.47965 415.385 5.53846C415.385 8.59727 417.864 11.0769 420.923 11.0769H659.077C662.136 11.0769 664.616 8.59727 664.616 5.53846C664.616 2.47965 662.136 0 659.077 0Z" fill="#234EEE" fill-opacity="0.2"/>
<path d="M797.538 0H725.538C722.48 0 720 2.47965 720 5.53846C720 8.59727 722.48 11.0769 725.538 11.0769H797.538C800.597 11.0769 803.077 8.59727 803.077 5.53846C803.077 2.47965 800.597 0 797.538 0Z" fill="#234EEE" fill-opacity="0.2"/>
<path d="M935.999 0H863.999C860.941 0 858.461 2.47965 858.461 5.53846C858.461 8.59727 860.941 11.0769 863.999 11.0769H935.999C939.058 11.0769 941.538 8.59727 941.538 5.53846C941.538 2.47965 939.058 0 935.999 0Z" fill="#234EEE" fill-opacity="0.2"/>
<path d="M1074.46 0H1057.85C1054.79 0 1052.31 2.47965 1052.31 5.53846C1052.31 8.59727 1054.79 11.0769 1057.85 11.0769H1074.46C1077.52 11.0769 1080 8.59727 1080 5.53846C1080 2.47965 1077.52 0 1074.46 0Z" fill="#234EEE" fill-opacity="0.2"/>
<path d="M1240.61 0H1168.61C1165.56 0 1163.08 2.47965 1163.08 5.53846C1163.08 8.59727 1165.56 11.0769 1168.61 11.0769H1240.61C1243.67 11.0769 1246.15 8.59727 1246.15 5.53846C1246.15 2.47965 1243.67 0 1240.61 0Z" fill="#234EEE" fill-opacity="0.2"/>
<path d="M1323.69 0H1307.08C1304.02 0 1301.54 2.47965 1301.54 5.53846C1301.54 8.59727 1304.02 11.0769 1307.08 11.0769H1323.69C1326.75 11.0769 1329.23 8.59727 1329.23 5.53846C1329.23 2.47965 1326.75 0 1323.69 0Z" fill="#234EEE" fill-opacity="0.2"/>
<path d="M1434.46 0H1417.85C1414.79 0 1412.31 2.47965 1412.31 5.53846C1412.31 8.59727 1414.79 11.0769 1417.85 11.0769H1434.46C1437.52 11.0769 1440 8.59727 1440 5.53846C1440 2.47965 1437.52 0 1434.46 0Z" fill="#234EEE" fill-opacity="0.2"/>
<path d="M105.23 11.0762H33.2299C30.1711 11.0762 27.6914 13.5558 27.6914 16.6146C27.6914 19.6734 30.1711 22.1531 33.2299 22.1531H105.23C108.289 22.1531 110.768 19.6734 110.768 16.6146C110.768 13.5558 108.289 11.0762 105.23 11.0762Z" fill="#234EEE" fill-opacity="0.2"/>
<path d="M188.308 11.0762H171.693C168.634 11.0762 166.154 13.5558 166.154 16.6146C166.154 19.6734 168.634 22.1531 171.693 22.1531H188.308C191.367 22.1531 193.847 19.6734 193.847 16.6146C193.847 13.5558 191.367 11.0762 188.308 11.0762Z" fill="#234EEE" fill-opacity="0.2"/>
<path d="M354.462 11.0762H337.847C334.788 11.0762 332.309 13.5558 332.309 16.6146C332.309 19.6734 334.788 22.1531 337.847 22.1531H354.462C357.521 22.1531 360.001 19.6734 360.001 16.6146C360.001 13.5558 357.521 11.0762 354.462 11.0762Z" fill="#234EEE" fill-opacity="0.2"/>
<path d="M659.077 11.0762H420.923C417.864 11.0762 415.385 13.5558 415.385 16.6146C415.385 19.6734 417.864 22.1531 420.923 22.1531H659.077C662.136 22.1531 664.616 19.6734 664.616 16.6146C664.616 13.5558 662.136 11.0762 659.077 11.0762Z" fill="#234EEE" fill-opacity="0.2"/>
<path d="M797.539 11.0762H697.847C694.788 11.0762 692.309 13.5558 692.309 16.6146C692.309 19.6734 694.788 22.1531 697.847 22.1531H797.539C800.598 22.1531 803.078 19.6734 803.078 16.6146C803.078 13.5558 800.598 11.0762 797.539 11.0762Z" fill="#234EEE" fill-opacity="0.2"/>
<path d="M963.692 11.0762H863.999C860.941 11.0762 858.461 13.5558 858.461 16.6146C858.461 19.6734 860.941 22.1531 863.999 22.1531H963.692C966.751 22.1531 969.23 19.6734 969.23 16.6146C969.23 13.5558 966.751 11.0762 963.692 11.0762Z" fill="#234EEE" fill-opacity="0.2"/>
<path d="M1074.46 11.0762H1057.85C1054.79 11.0762 1052.31 13.5558 1052.31 16.6146C1052.31 19.6734 1054.79 22.1531 1057.85 22.1531H1074.46C1077.52 22.1531 1080 19.6734 1080 16.6146C1080 13.5558 1077.52 11.0762 1074.46 11.0762Z" fill="#234EEE" fill-opacity="0.2"/>
<path d="M1268.31 11.0762H1168.61C1165.56 11.0762 1163.08 13.5558 1163.08 16.6146C1163.08 19.6734 1165.56 22.1531 1168.61 22.1531H1268.31C1271.37 22.1531 1273.85 19.6734 1273.85 16.6146C1273.85 13.5558 1271.37 11.0762 1268.31 11.0762Z" fill="#234EEE" fill-opacity="0.2"/>
<path d="M1323.69 11.0762H1307.08C1304.02 11.0762 1301.54 13.5558 1301.54 16.6146C1301.54 19.6734 1304.02 22.1531 1307.08 22.1531H1323.69C1326.75 22.1531 1329.23 19.6734 1329.23 16.6146C1329.23 13.5558 1326.75 11.0762 1323.69 11.0762Z" fill="#234EEE" fill-opacity="0.2"/>
<path d="M1434.46 11.0762H1417.85C1414.79 11.0762 1412.31 13.5558 1412.31 16.6146C1412.31 19.6734 1414.79 22.1531 1417.85 22.1531H1434.46C1437.52 22.1531 1440 19.6734 1440 16.6146C1440 13.5558 1437.52 11.0762 1434.46 11.0762Z" fill="#234EEE" fill-opacity="0.2"/>
<path d="M22.1538 22.1543H5.53846C2.47965 22.1543 0 24.634 0 27.6928C0 30.7516 2.47965 33.2312 5.53846 33.2312H22.1538C25.2127 33.2312 27.6923 30.7516 27.6923 27.6928C27.6923 24.634 25.2127 22.1543 22.1538 22.1543Z" fill="#234EEE" fill-opacity="0.2"/>
<path d="M105.23 22.1543H88.6146C85.5558 22.1543 83.0762 24.634 83.0762 27.6928C83.0762 30.7516 85.5558 33.2312 88.6146 33.2312H105.23C108.289 33.2312 110.768 30.7516 110.768 27.6928C110.768 24.634 108.289 22.1543 105.23 22.1543Z" fill="#234EEE" fill-opacity="0.2"/>
<path d="M188.308 22.1543H171.693C168.634 22.1543 166.154 24.634 166.154 27.6928C166.154 30.7516 168.634 33.2312 171.693 33.2312H188.308C191.367 33.2312 193.847 30.7516 193.847 27.6928C193.847 24.634 191.367 22.1543 188.308 22.1543Z" fill="#234EEE" fill-opacity="0.2"/>
<path d="M354.461 22.1543H310.154C307.095 22.1543 304.615 24.634 304.615 27.6928C304.615 30.7516 307.095 33.2312 310.154 33.2312H354.461C357.52 33.2312 360 30.7516 360 27.6928C360 24.634 357.52 22.1543 354.461 22.1543Z" fill="#234EEE" fill-opacity="0.2"/>
<path d="M576 22.1543H559.384C556.325 22.1543 553.846 24.634 553.846 27.6928C553.846 30.7516 556.325 33.2312 559.384 33.2312H576C579.058 33.2312 581.538 30.7516 581.538 27.6928C581.538 24.634 579.058 22.1543 576 22.1543Z" fill="#234EEE" fill-opacity="0.2"/>
<path d="M714.462 22.1543H697.847C694.788 22.1543 692.309 24.634 692.309 27.6928C692.309 30.7516 694.788 33.2312 697.847 33.2312H714.462C717.521 33.2312 720.001 30.7516 720.001 27.6928C720.001 24.634 717.521 22.1543 714.462 22.1543Z" fill="#234EEE" fill-opacity="0.2"/>
<path d="M825.231 22.1543H780.923C777.864 22.1543 775.385 24.634 775.385 27.6928C775.385 30.7516 777.864 33.2312 780.923 33.2312H825.231C828.29 33.2312 830.769 30.7516 830.769 27.6928C830.769 24.634 828.29 22.1543 825.231 22.1543Z" fill="#234EEE" fill-opacity="0.2"/>
<path d="M880.615 22.1543H863.999C860.941 22.1543 858.461 24.634 858.461 27.6928C858.461 30.7516 860.941 33.2312 863.999 33.2312H880.615C883.674 33.2312 886.153 30.7516 886.153 27.6928C886.153 24.634 883.674 22.1543 880.615 22.1543Z" fill="#234EEE" fill-opacity="0.2"/>
<path d="M963.693 22.1543H947.078C944.019 22.1543 941.539 24.634 941.539 27.6928C941.539 30.7516 944.019 33.2312 947.078 33.2312H963.693C966.752 33.2312 969.231 30.7516 969.231 27.6928C969.231 24.634 966.752 22.1543 963.693 22.1543Z" fill="#234EEE" fill-opacity="0.2"/>
<path d="M1074.46 22.1543H1057.85C1054.79 22.1543 1052.31 24.634 1052.31 27.6928C1052.31 30.7516 1054.79 33.2312 1057.85 33.2312H1074.46C1077.52 33.2312 1080 30.7516 1080 27.6928C1080 24.634 1077.52 22.1543 1074.46 22.1543Z" fill="#234EEE" fill-opacity="0.2"/>
<path d="M1185.23 22.1543H1168.61C1165.56 22.1543 1163.08 24.634 1163.08 27.6928C1163.08 30.7516 1165.56 33.2312 1168.61 33.2312H1185.23C1188.29 33.2312 1190.77 30.7516 1190.77 27.6928C1190.77 24.634 1188.29 22.1543 1185.23 22.1543Z" fill="#234EEE" fill-opacity="0.2"/>
<path d="M1268.31 22.1543H1251.69C1248.63 22.1543 1246.15 24.634 1246.15 27.6928C1246.15 30.7516 1248.63 33.2312 1251.69 33.2312H1268.31C1271.37 33.2312 1273.85 30.7516 1273.85 27.6928C1273.85 24.634 1271.37 22.1543 1268.31 22.1543Z" fill="#234EEE" fill-opacity="0.2"/>
<path d="M1323.69 22.1543H1307.08C1304.02 22.1543 1301.54 24.634 1301.54 27.6928C1301.54 30.7516 1304.02 33.2312 1307.08 33.2312H1323.69C1326.75 33.2312 1329.23 30.7516 1329.23 27.6928C1329.23 24.634 1326.75 22.1543 1323.69 22.1543Z" fill="#234EEE" fill-opacity="0.2"/>
<path d="M1434.46 22.1543H1417.85C1414.79 22.1543 1412.31 24.634 1412.31 27.6928C1412.31 30.7516 1414.79 33.2312 1417.85 33.2312H1434.46C1437.52 33.2312 1440 30.7516 1440 27.6928C1440 24.634 1437.52 22.1543 1434.46 22.1543Z" fill="#234EEE" fill-opacity="0.2"/>
<path d="M22.1538 33.2305H5.53846C2.47965 33.2305 0 35.7101 0 38.7689C0 41.8277 2.47965 44.3074 5.53846 44.3074H22.1538C25.2127 44.3074 27.6923 41.8277 27.6923 38.7689C27.6923 35.7101 25.2127 33.2305 22.1538 33.2305Z" fill="#234EEE" fill-opacity="0.2"/>
<path d="M132.923 33.2305H116.308C113.249 33.2305 110.77 35.7101 110.77 38.7689C110.77 41.8277 113.249 44.3074 116.308 44.3074H132.923C135.982 44.3074 138.462 41.8277 138.462 38.7689C138.462 35.7101 135.982 33.2305 132.923 33.2305Z" fill="#234EEE" fill-opacity="0.2"/>
<path d="M188.308 33.2305H171.693C168.634 33.2305 166.154 35.7101 166.154 38.7689C166.154 41.8277 168.634 44.3074 171.693 44.3074H188.308C191.367 44.3074 193.847 41.8277 193.847 38.7689C193.847 35.7101 191.367 33.2305 188.308 33.2305Z" fill="#234EEE" fill-opacity="0.2"/>
<path d="M354.461 33.2305H310.154C307.095 33.2305 304.615 35.7101 304.615 38.7689C304.615 41.8277 307.095 44.3074 310.154 44.3074H354.461C357.52 44.3074 360 41.8277 360 38.7689C360 35.7101 357.52 33.2305 354.461 33.2305Z" fill="#234EEE" fill-opacity="0.2"/>
<path d="M576 33.2305H559.384C556.325 33.2305 553.846 35.7101 553.846 38.7689C553.846 41.8277 556.325 44.3074 559.384 44.3074H576C579.058 44.3074 581.538 41.8277 581.538 38.7689C581.538 35.7101 579.058 33.2305 576 33.2305Z" fill="#234EEE" fill-opacity="0.2"/>
<path d="M714.462 33.2305H697.847C694.788 33.2305 692.309 35.7101 692.309 38.7689C692.309 41.8277 694.788 44.3074 697.847 44.3074H714.462C717.521 44.3074 720.001 41.8277 720.001 38.7689C720.001 35.7101 717.521 33.2305 714.462 33.2305Z" fill="#234EEE" fill-opacity="0.2"/>
<path d="M825.23 33.2305H808.615C805.556 33.2305 803.076 35.7101 803.076 38.7689C803.076 41.8277 805.556 44.3074 808.615 44.3074H825.23C828.289 44.3074 830.768 41.8277 830.768 38.7689C830.768 35.7101 828.289 33.2305 825.23 33.2305Z" fill="#234EEE" fill-opacity="0.2"/>
<path d="M880.615 33.2305H863.999C860.941 33.2305 858.461 35.7101 858.461 38.7689C858.461 41.8277 860.941 44.3074 863.999 44.3074H880.615C883.674 44.3074 886.153 41.8277 886.153 38.7689C886.153 35.7101 883.674 33.2305 880.615 33.2305Z" fill="#234EEE" fill-opacity="0.2"/>
<path d="M963.693 33.2305H947.078C944.019 33.2305 941.539 35.7101 941.539 38.7689C941.539 41.8277 944.019 44.3074 947.078 44.3074H963.693C966.752 44.3074 969.231 41.8277 969.231 38.7689C969.231 35.7101 966.752 33.2305 963.693 33.2305Z" fill="#234EEE" fill-opacity="0.2"/>
<path d="M1102.15 33.2305H1085.54C1082.48 33.2305 1080 35.7101 1080 38.7689C1080 41.8277 1082.48 44.3074 1085.54 44.3074H1102.15C1105.21 44.3074 1107.69 41.8277 1107.69 38.7689C1107.69 35.7101 1105.21 33.2305 1102.15 33.2305Z" fill="#234EEE" fill-opacity="0.2"/>
<path d="M1185.23 33.2305H1168.61C1165.56 33.2305 1163.08 35.7101 1163.08 38.7689C1163.08 41.8277 1165.56 44.3074 1168.61 44.3074H1185.23C1188.29 44.3074 1190.77 41.8277 1190.77 38.7689C1190.77 35.7101 1188.29 33.2305 1185.23 33.2305Z" fill="#234EEE" fill-opacity="0.2"/>
<path d="M1268.31 33.2305H1251.69C1248.63 33.2305 1246.15 35.7101 1246.15 38.7689C1246.15 41.8277 1248.63 44.3074 1251.69 44.3074H1268.31C1271.37 44.3074 1273.85 41.8277 1273.85 38.7689C1273.85 35.7101 1271.37 33.2305 1268.31 33.2305Z" fill="#234EEE" fill-opacity="0.2"/>
<path d="M1323.69 33.2305H1307.08C1304.02 33.2305 1301.54 35.7101 1301.54 38.7689C1301.54 41.8277 1304.02 44.3074 1307.08 44.3074H1323.69C1326.75 44.3074 1329.23 41.8277 1329.23 38.7689C1329.23 35.7101 1326.75 33.2305 1323.69 33.2305Z" fill="#234EEE" fill-opacity="0.2"/>
<path d="M1434.46 33.2305H1417.85C1414.79 33.2305 1412.31 35.7101 1412.31 38.7689C1412.31 41.8277 1414.79 44.3074 1417.85 44.3074H1434.46C1437.52 44.3074 1440 41.8277 1440 38.7689C1440 35.7101 1437.52 33.2305 1434.46 33.2305Z" fill="#234EEE" fill-opacity="0.2"/>
<path d="M22.1538 44.3086H5.53846C2.47965 44.3086 0 46.7882 0 49.8471C0 52.9059 2.47965 55.3855 5.53846 55.3855H22.1538C25.2127 55.3855 27.6923 52.9059 27.6923 49.8471C27.6923 46.7882 25.2127 44.3086 22.1538 44.3086Z" fill="#234EEE" fill-opacity="0.2"/>
<path d="M132.923 44.3086H116.308C113.249 44.3086 110.77 46.7882 110.77 49.8471C110.77 52.9059 113.249 55.3855 116.308 55.3855H132.923C135.982 55.3855 138.462 52.9059 138.462 49.8471C138.462 46.7882 135.982 44.3086 132.923 44.3086Z" fill="#234EEE" fill-opacity="0.2"/>
<path d="M188.308 44.3086H171.693C168.634 44.3086 166.154 46.7882 166.154 49.8471C166.154 52.9059 168.634 55.3855 171.693 55.3855H188.308C191.367 55.3855 193.847 52.9059 193.847 49.8471C193.847 46.7882 191.367 44.3086 188.308 44.3086Z" fill="#234EEE" fill-opacity="0.2"/>
<path d="M326.769 44.3086H310.154C307.095 44.3086 304.615 46.7882 304.615 49.8471C304.615 52.9059 307.095 55.3855 310.154 55.3855H326.769C329.828 55.3855 332.308 52.9059 332.308 49.8471C332.308 46.7882 329.828 44.3086 326.769 44.3086Z" fill="#234EEE" fill-opacity="0.2"/>
<path d="M576 44.3086H559.384C556.325 44.3086 553.846 46.7882 553.846 49.8471C553.846 52.9059 556.325 55.3855 559.384 55.3855H576C579.058 55.3855 581.538 52.9059 581.538 49.8471C581.538 46.7882 579.058 44.3086 576 44.3086Z" fill="#234EEE" fill-opacity="0.2"/>
<path d="M714.462 44.3086H697.847C694.788 44.3086 692.309 46.7882 692.309 49.8471C692.309 52.9059 694.788 55.3855 697.847 55.3855H714.462C717.521 55.3855 720.001 52.9059 720.001 49.8471C720.001 46.7882 717.521 44.3086 714.462 44.3086Z" fill="#234EEE" fill-opacity="0.2"/>
<path d="M825.23 44.3086H808.615C805.556 44.3086 803.076 46.7882 803.076 49.8471C803.076 52.9059 805.556 55.3855 808.615 55.3855H825.23C828.289 55.3855 830.768 52.9059 830.768 49.8471C830.768 46.7882 828.289 44.3086 825.23 44.3086Z" fill="#234EEE" fill-opacity="0.2"/>
<path d="M880.615 44.3086H863.999C860.941 44.3086 858.461 46.7882 858.461 49.8471C858.461 52.9059 860.941 55.3855 863.999 55.3855H880.615C883.674 55.3855 886.153 52.9059 886.153 49.8471C886.153 46.7882 883.674 44.3086 880.615 44.3086Z" fill="#234EEE" fill-opacity="0.2"/>
<path d="M1046.77 44.3086H1030.15C1027.09 44.3086 1024.62 46.7882 1024.62 49.8471C1024.62 52.9059 1027.09 55.3855 1030.15 55.3855H1046.77C1049.83 55.3855 1052.31 52.9059 1052.31 49.8471C1052.31 46.7882 1049.83 44.3086 1046.77 44.3086Z" fill="#234EEE" fill-opacity="0.2"/>
<path d="M1102.15 44.3086H1085.54C1082.48 44.3086 1080 46.7882 1080 49.8471C1080 52.9059 1082.48 55.3855 1085.54 55.3855H1102.15C1105.21 55.3855 1107.69 52.9059 1107.69 49.8471C1107.69 46.7882 1105.21 44.3086 1102.15 44.3086Z" fill="#234EEE" fill-opacity="0.2"/>
<path d="M1185.23 44.3086H1168.61C1165.56 44.3086 1163.08 46.7882 1163.08 49.8471C1163.08 52.9059 1165.56 55.3855 1168.61 55.3855H1185.23C1188.29 55.3855 1190.77 52.9059 1190.77 49.8471C1190.77 46.7882 1188.29 44.3086 1185.23 44.3086Z" fill="#234EEE" fill-opacity="0.2"/>
<path d="M1323.69 44.3086H1307.08C1304.02 44.3086 1301.54 46.7882 1301.54 49.8471C1301.54 52.9059 1304.02 55.3855 1307.08 55.3855H1323.69C1326.75 55.3855 1329.23 52.9059 1329.23 49.8471C1329.23 46.7882 1326.75 44.3086 1323.69 44.3086Z" fill="#234EEE" fill-opacity="0.2"/>
<path d="M1434.46 44.3086H1417.85C1414.79 44.3086 1412.31 46.7882 1412.31 49.8471C1412.31 52.9059 1414.79 55.3855 1417.85 55.3855H1434.46C1437.52 55.3855 1440 52.9059 1440 49.8471C1440 46.7882 1437.52 44.3086 1434.46 44.3086Z" fill="#234EEE" fill-opacity="0.2"/>
<path d="M22.1538 55.3848H5.53846C2.47965 55.3848 0 57.8644 0 60.9232C0 63.982 2.47965 66.4617 5.53846 66.4617H22.1538C25.2127 66.4617 27.6923 63.982 27.6923 60.9232C27.6923 57.8644 25.2127 55.3848 22.1538 55.3848Z" fill="#234EEE" fill-opacity="0.2"/>
<path d="M188.308 55.3848H171.693C168.634 55.3848 166.154 57.8644 166.154 60.9232C166.154 63.982 168.634 66.4617 171.693 66.4617H188.308C191.367 66.4617 193.847 63.982 193.847 60.9232C193.847 57.8644 191.367 55.3848 188.308 55.3848Z" fill="#234EEE" fill-opacity="0.2"/>
<path d="M326.769 55.3848H310.154C307.095 55.3848 304.615 57.8644 304.615 60.9232C304.615 63.982 307.095 66.4617 310.154 66.4617H326.769C329.828 66.4617 332.308 63.982 332.308 60.9232C332.308 57.8644 329.828 55.3848 326.769 55.3848Z" fill="#234EEE" fill-opacity="0.2"/>
<path d="M382.154 55.3848H365.538C362.48 55.3848 360 57.8644 360 60.9232C360 63.982 362.48 66.4617 365.538 66.4617H382.154C385.213 66.4617 387.692 63.982 387.692 60.9232C387.692 57.8644 385.213 55.3848 382.154 55.3848Z" fill="#234EEE" fill-opacity="0.2"/>
<path d="M576 55.3848H559.384C556.325 55.3848 553.846 57.8644 553.846 60.9232C553.846 63.982 556.325 66.4617 559.384 66.4617H576C579.058 66.4617 581.538 63.982 581.538 60.9232C581.538 57.8644 579.058 55.3848 576 55.3848Z" fill="#234EEE" fill-opacity="0.2"/>
<path d="M880.615 55.3848H863.999C860.941 55.3848 858.461 57.8644 858.461 60.9232C858.461 63.982 860.941 66.4617 863.999 66.4617H880.615C883.674 66.4617 886.153 63.982 886.153 60.9232C886.153 57.8644 883.674 55.3848 880.615 55.3848Z" fill="#234EEE" fill-opacity="0.2"/>
<path d="M1046.77 55.3848H1030.15C1027.09 55.3848 1024.62 57.8644 1024.62 60.9232C1024.62 63.982 1027.09 66.4617 1030.15 66.4617H1046.77C1049.83 66.4617 1052.31 63.982 1052.31 60.9232C1052.31 57.8644 1049.83 55.3848 1046.77 55.3848Z" fill="#234EEE" fill-opacity="0.2"/>
<path d="M1102.15 55.3848H1085.54C1082.48 55.3848 1080 57.8644 1080 60.9232C1080 63.982 1082.48 66.4617 1085.54 66.4617H1102.15C1105.21 66.4617 1107.69 63.982 1107.69 60.9232C1107.69 57.8644 1105.21 55.3848 1102.15 55.3848Z" fill="#234EEE" fill-opacity="0.2"/>
<path d="M1185.23 55.3848H1168.61C1165.56 55.3848 1163.08 57.8644 1163.08 60.9232C1163.08 63.982 1165.56 66.4617 1168.61 66.4617H1185.23C1188.29 66.4617 1190.77 63.982 1190.77 60.9232C1190.77 57.8644 1188.29 55.3848 1185.23 55.3848Z" fill="#234EEE" fill-opacity="0.2"/>
<path d="M1323.69 55.3848H1307.08C1304.02 55.3848 1301.54 57.8644 1301.54 60.9232C1301.54 63.982 1304.02 66.4617 1307.08 66.4617H1323.69C1326.75 66.4617 1329.23 63.982 1329.23 60.9232C1329.23 57.8644 1326.75 55.3848 1323.69 55.3848Z" fill="#234EEE" fill-opacity="0.2"/>
<path d="M1434.46 55.3848H1417.85C1414.79 55.3848 1412.31 57.8644 1412.31 60.9232C1412.31 63.982 1414.79 66.4617 1417.85 66.4617H1434.46C1437.52 66.4617 1440 63.982 1440 60.9232C1440 57.8644 1437.52 55.3848 1434.46 55.3848Z" fill="#234EEE" fill-opacity="0.2"/>
<path d="M49.8462 66.4609H5.53846C2.47965 66.4609 0 68.9406 0 71.9994C0 75.0582 2.47965 77.5379 5.53846 77.5379H49.8462C52.905 77.5379 55.3846 75.0582 55.3846 71.9994C55.3846 68.9406 52.905 66.4609 49.8462 66.4609Z" fill="#234EEE" fill-opacity="0.2"/>
<path d="M188.308 66.4609H171.693C168.634 66.4609 166.154 68.9406 166.154 71.9994C166.154 75.0582 168.634 77.5379 171.693 77.5379H188.308C191.367 77.5379 193.847 75.0582 193.847 71.9994C193.847 68.9406 191.367 66.4609 188.308 66.4609Z" fill="#234EEE" fill-opacity="0.2"/>
<path d="M326.769 66.4609H310.154C307.095 66.4609 304.615 68.9406 304.615 71.9994C304.615 75.0582 307.095 77.5379 310.154 77.5379H326.769C329.828 77.5379 332.308 75.0582 332.308 71.9994C332.308 68.9406 329.828 66.4609 326.769 66.4609Z" fill="#234EEE" fill-opacity="0.2"/>
<path d="M382.154 66.4609H365.538C362.48 66.4609 360 68.9406 360 71.9994C360 75.0582 362.48 77.5379 365.538 77.5379H382.154C385.213 77.5379 387.692 75.0582 387.692 71.9994C387.692 68.9406 385.213 66.4609 382.154 66.4609Z" fill="#234EEE" fill-opacity="0.2"/>
<path d="M576 66.4609H559.384C556.325 66.4609 553.846 68.9406 553.846 71.9994C553.846 75.0582 556.325 77.5379 559.384 77.5379H576C579.058 77.5379 581.538 75.0582 581.538 71.9994C581.538 68.9406 579.058 66.4609 576 66.4609Z" fill="#234EEE" fill-opacity="0.2"/>
<path d="M686.769 66.4609H670.154C667.095 66.4609 664.615 68.9406 664.615 71.9994C664.615 75.0582 667.095 77.5379 670.154 77.5379H686.769C689.828 77.5379 692.308 75.0582 692.308 71.9994C692.308 68.9406 689.828 66.4609 686.769 66.4609Z" fill="#234EEE" fill-opacity="0.2"/>
<path d="M880.615 66.4609H863.999C860.941 66.4609 858.461 68.9406 858.461 71.9994C858.461 75.0582 860.941 77.5379 863.999 77.5379H880.615C883.674 77.5379 886.153 75.0582 886.153 71.9994C886.153 68.9406 883.674 66.4609 880.615 66.4609Z" fill="#234EEE" fill-opacity="0.2"/>
<path d="M963.693 66.4609H947.078C944.019 66.4609 941.539 68.9406 941.539 71.9994C941.539 75.0582 944.019 77.5379 947.078 77.5379H963.693C966.752 77.5379 969.231 75.0582 969.231 71.9994C969.231 68.9406 966.752 66.4609 963.693 66.4609Z" fill="#234EEE" fill-opacity="0.2"/>
<path d="M1046.77 66.4609H1030.15C1027.09 66.4609 1024.62 68.9406 1024.62 71.9994C1024.62 75.0582 1027.09 77.5379 1030.15 77.5379H1046.77C1049.83 77.5379 1052.31 75.0582 1052.31 71.9994C1052.31 68.9406 1049.83 66.4609 1046.77 66.4609Z" fill="#234EEE" fill-opacity="0.2"/>
<path d="M1102.15 66.4609H1085.54C1082.48 66.4609 1080 68.9406 1080 71.9994C1080 75.0582 1082.48 77.5379 1085.54 77.5379H1102.15C1105.21 77.5379 1107.69 75.0582 1107.69 71.9994C1107.69 68.9406 1105.21 66.4609 1102.15 66.4609Z" fill="#234EEE" fill-opacity="0.2"/>
<path d="M1185.23 66.4609H1168.61C1165.56 66.4609 1163.08 68.9406 1163.08 71.9994C1163.08 75.0582 1165.56 77.5379 1168.61 77.5379H1185.23C1188.29 77.5379 1190.77 75.0582 1190.77 71.9994C1190.77 68.9406 1188.29 66.4609 1185.23 66.4609Z" fill="#234EEE" fill-opacity="0.2"/>
<path d="M1268.31 66.4609H1251.69C1248.63 66.4609 1246.15 68.9406 1246.15 71.9994C1246.15 75.0582 1248.63 77.5379 1251.69 77.5379H1268.31C1271.37 77.5379 1273.85 75.0582 1273.85 71.9994C1273.85 68.9406 1271.37 66.4609 1268.31 66.4609Z" fill="#234EEE" fill-opacity="0.2"/>
<path d="M1323.69 66.4609H1307.08C1304.02 66.4609 1301.54 68.9406 1301.54 71.9994C1301.54 75.0582 1304.02 77.5379 1307.08 77.5379H1323.69C1326.75 77.5379 1329.23 75.0582 1329.23 71.9994C1329.23 68.9406 1326.75 66.4609 1323.69 66.4609Z" fill="#234EEE" fill-opacity="0.2"/>
<path d="M1434.46 66.4609H1417.85C1414.79 66.4609 1412.31 68.9406 1412.31 71.9994C1412.31 75.0582 1414.79 77.5379 1417.85 77.5379H1434.46C1437.52 77.5379 1440 75.0582 1440 71.9994C1440 68.9406 1437.52 66.4609 1434.46 66.4609Z" fill="#234EEE" fill-opacity="0.2"/>
<path d="M77.5376 77.5391H33.2299C30.1711 77.5391 27.6914 80.0187 27.6914 83.0775C27.6914 86.1363 30.1711 88.616 33.2299 88.616H77.5376C80.5964 88.616 83.076 86.1363 83.076 83.0775C83.076 80.0187 80.5964 77.5391 77.5376 77.5391Z" fill="#234EEE" fill-opacity="0.2"/>
<path d="M188.308 77.5391H171.693C168.634 77.5391 166.154 80.0187 166.154 83.0775C166.154 86.1363 168.634 88.616 171.693 88.616H188.308C191.367 88.616 193.847 86.1363 193.847 83.0775C193.847 80.0187 191.367 77.5391 188.308 77.5391Z" fill="#234EEE" fill-opacity="0.2"/>
<path d="M326.769 77.5391H310.154C307.095 77.5391 304.615 80.0187 304.615 83.0775C304.615 86.1363 307.095 88.616 310.154 88.616H326.769C329.828 88.616 332.308 86.1363 332.308 83.0775C332.308 80.0187 329.828 77.5391 326.769 77.5391Z" fill="#234EEE" fill-opacity="0.2"/>
<path d="M382.154 77.5391H365.538C362.48 77.5391 360 80.0187 360 83.0775C360 86.1363 362.48 88.616 365.538 88.616H382.154C385.213 88.616 387.692 86.1363 387.692 83.0775C387.692 80.0187 385.213 77.5391 382.154 77.5391Z" fill="#234EEE" fill-opacity="0.2"/>
<path d="M686.769 77.5391H559.384C556.325 77.5391 553.846 80.0187 553.846 83.0775C553.846 86.1363 556.325 88.616 559.384 88.616H686.769C689.828 88.616 692.307 86.1363 692.307 83.0775C692.307 80.0187 689.828 77.5391 686.769 77.5391Z" fill="#234EEE" fill-opacity="0.2"/>
<path d="M880.615 77.5391H863.999C860.941 77.5391 858.461 80.0187 858.461 83.0775C858.461 86.1363 860.941 88.616 863.999 88.616H880.615C883.674 88.616 886.153 86.1363 886.153 83.0775C886.153 80.0187 883.674 77.5391 880.615 77.5391Z" fill="#234EEE" fill-opacity="0.2"/>
<path d="M963.693 77.5391H947.078C944.019 77.5391 941.539 80.0187 941.539 83.0775C941.539 86.1363 944.019 88.616 947.078 88.616H963.693C966.752 88.616 969.231 86.1363 969.231 83.0775C969.231 80.0187 966.752 77.5391 963.693 77.5391Z" fill="#234EEE" fill-opacity="0.2"/>
<path d="M1046.77 77.5391H1030.15C1027.09 77.5391 1024.62 80.0187 1024.62 83.0775C1024.62 86.1363 1027.09 88.616 1030.15 88.616H1046.77C1049.83 88.616 1052.31 86.1363 1052.31 83.0775C1052.31 80.0187 1049.83 77.5391 1046.77 77.5391Z" fill="#234EEE" fill-opacity="0.2"/>
<path d="M1102.15 77.5391H1085.54C1082.48 77.5391 1080 80.0187 1080 83.0775C1080 86.1363 1082.48 88.616 1085.54 88.616H1102.15C1105.21 88.616 1107.69 86.1363 1107.69 83.0775C1107.69 80.0187 1105.21 77.5391 1102.15 77.5391Z" fill="#234EEE" fill-opacity="0.2"/>
<path d="M1185.23 77.5391H1168.61C1165.56 77.5391 1163.08 80.0187 1163.08 83.0775C1163.08 86.1363 1165.56 88.616 1168.61 88.616H1185.23C1188.29 88.616 1190.77 86.1363 1190.77 83.0775C1190.77 80.0187 1188.29 77.5391 1185.23 77.5391Z" fill="#234EEE" fill-opacity="0.2"/>
<path d="M1268.31 77.5391H1251.69C1248.63 77.5391 1246.15 80.0187 1246.15 83.0775C1246.15 86.1363 1248.63 88.616 1251.69 88.616H1268.31C1271.37 88.616 1273.85 86.1363 1273.85 83.0775C1273.85 80.0187 1271.37 77.5391 1268.31 77.5391Z" fill="#234EEE" fill-opacity="0.2"/>
<path d="M1434.46 77.5391H1307.08C1304.02 77.5391 1301.54 80.0187 1301.54 83.0775C1301.54 86.1363 1304.02 88.616 1307.08 88.616H1434.46C1437.52 88.616 1440 86.1363 1440 83.0775C1440 80.0187 1437.52 77.5391 1434.46 77.5391Z" fill="#234EEE" fill-opacity="0.2"/>
<path d="M105.231 88.6152H60.9232C57.8644 88.6152 55.3848 91.0949 55.3848 94.1537C55.3848 97.2125 57.8644 99.6922 60.9232 99.6922H105.231C108.29 99.6922 110.769 97.2125 110.769 94.1537C110.769 91.0949 108.29 88.6152 105.231 88.6152Z" fill="#234EEE" fill-opacity="0.2"/>
<path d="M188.308 88.6152H171.693C168.634 88.6152 166.154 91.0949 166.154 94.1537C166.154 97.2125 168.634 99.6922 171.693 99.6922H188.308C191.367 99.6922 193.847 97.2125 193.847 94.1537C193.847 91.0949 191.367 88.6152 188.308 88.6152Z" fill="#234EEE" fill-opacity="0.2"/>
<path d="M382.154 88.6152H365.538C362.48 88.6152 360 91.0949 360 94.1537C360 97.2125 362.48 99.6922 365.538 99.6922H382.154C385.213 99.6922 387.692 97.2125 387.692 94.1537C387.692 91.0949 385.213 88.6152 382.154 88.6152Z" fill="#234EEE" fill-opacity="0.2"/>
<path d="M686.769 88.6152H559.384C556.325 88.6152 553.846 91.0949 553.846 94.1537C553.846 97.2125 556.325 99.6922 559.384 99.6922H686.769C689.828 99.6922 692.307 97.2125 692.307 94.1537C692.307 91.0949 689.828 88.6152 686.769 88.6152Z" fill="#234EEE" fill-opacity="0.2"/>
<path d="M825.231 88.6152H780.923C777.864 88.6152 775.385 91.0949 775.385 94.1537C775.385 97.2125 777.864 99.6922 780.923 99.6922H825.231C828.29 99.6922 830.769 97.2125 830.769 94.1537C830.769 91.0949 828.29 88.6152 825.231 88.6152Z" fill="#234EEE" fill-opacity="0.2"/>
<path d="M963.692 88.6152H863.999C860.941 88.6152 858.461 91.0949 858.461 94.1537C858.461 97.2125 860.941 99.6922 863.999 99.6922H963.692C966.751 99.6922 969.23 97.2125 969.23 94.1537C969.23 91.0949 966.751 88.6152 963.692 88.6152Z" fill="#234EEE" fill-opacity="0.2"/>
<path d="M1046.77 88.6152H1030.15C1027.09 88.6152 1024.62 91.0949 1024.62 94.1537C1024.62 97.2125 1027.09 99.6922 1030.15 99.6922H1046.77C1049.83 99.6922 1052.31 97.2125 1052.31 94.1537C1052.31 91.0949 1049.83 88.6152 1046.77 88.6152Z" fill="#234EEE" fill-opacity="0.2"/>
<path d="M1102.15 88.6152H1085.54C1082.48 88.6152 1080 91.0949 1080 94.1537C1080 97.2125 1082.48 99.6922 1085.54 99.6922H1102.15C1105.21 99.6922 1107.69 97.2125 1107.69 94.1537C1107.69 91.0949 1105.21 88.6152 1102.15 88.6152Z" fill="#234EEE" fill-opacity="0.2"/>
<path d="M1268.31 88.6152H1168.61C1165.56 88.6152 1163.08 91.0949 1163.08 94.1537C1163.08 97.2125 1165.56 99.6922 1168.61 99.6922H1268.31C1271.37 99.6922 1273.85 97.2125 1273.85 94.1537C1273.85 91.0949 1271.37 88.6152 1268.31 88.6152Z" fill="#234EEE" fill-opacity="0.2"/>
<path d="M1434.46 88.6152H1307.08C1304.02 88.6152 1301.54 91.0949 1301.54 94.1537C1301.54 97.2125 1304.02 99.6922 1307.08 99.6922H1434.46C1437.52 99.6922 1440 97.2125 1440 94.1537C1440 91.0949 1437.52 88.6152 1434.46 88.6152Z" fill="#234EEE" fill-opacity="0.2"/>
<path d="M132.922 99.6914H88.6146C85.5558 99.6914 83.0762 102.171 83.0762 105.23C83.0762 108.289 85.5558 110.768 88.6146 110.768H132.922C135.981 110.768 138.461 108.289 138.461 105.23C138.461 102.171 135.981 99.6914 132.922 99.6914Z" fill="#234EEE" fill-opacity="0.2"/>
<path d="M188.308 99.6914H171.693C168.634 99.6914 166.154 102.171 166.154 105.23C166.154 108.289 168.634 110.768 171.693 110.768H188.308C191.367 110.768 193.847 108.289 193.847 105.23C193.847 102.171 191.367 99.6914 188.308 99.6914Z" fill="#234EEE" fill-opacity="0.2"/>
<path d="M299.078 99.6914H282.462C279.403 99.6914 276.924 102.171 276.924 105.23C276.924 108.289 279.403 110.768 282.462 110.768H299.078C302.136 110.768 304.616 108.289 304.616 105.23C304.616 102.171 302.136 99.6914 299.078 99.6914Z" fill="#234EEE" fill-opacity="0.2"/>
<path d="M382.154 99.6914H365.538C362.48 99.6914 360 102.171 360 105.23C360 108.289 362.48 110.768 365.538 110.768H382.154C385.213 110.768 387.692 108.289 387.692 105.23C387.692 102.171 385.213 99.6914 382.154 99.6914Z" fill="#234EEE" fill-opacity="0.2"/>
<path d="M576 99.6914H559.384C556.325 99.6914 553.846 102.171 553.846 105.23C553.846 108.289 556.325 110.768 559.384 110.768H576C579.058 110.768 581.538 108.289 581.538 105.23C581.538 102.171 579.058 99.6914 576 99.6914Z" fill="#234EEE" fill-opacity="0.2"/>
<path d="M686.769 99.6914H670.154C667.095 99.6914 664.615 102.171 664.615 105.23C664.615 108.289 667.095 110.768 670.154 110.768H686.769C689.828 110.768 692.308 108.289 692.308 105.23C692.308 102.171 689.828 99.6914 686.769 99.6914Z" fill="#234EEE" fill-opacity="0.2"/>
<path d="M825.23 99.6914H808.615C805.556 99.6914 803.076 102.171 803.076 105.23C803.076 108.289 805.556 110.768 808.615 110.768H825.23C828.289 110.768 830.768 108.289 830.768 105.23C830.768 102.171 828.289 99.6914 825.23 99.6914Z" fill="#234EEE" fill-opacity="0.2"/>
<path d="M935.999 99.6914H863.999C860.941 99.6914 858.461 102.171 858.461 105.23C858.461 108.289 860.941 110.768 863.999 110.768H935.999C939.058 110.768 941.538 108.289 941.538 105.23C941.538 102.171 939.058 99.6914 935.999 99.6914Z" fill="#234EEE" fill-opacity="0.2"/>
<path d="M1046.77 99.6914H1030.15C1027.09 99.6914 1024.62 102.171 1024.62 105.23C1024.62 108.289 1027.09 110.768 1030.15 110.768H1046.77C1049.83 110.768 1052.31 108.289 1052.31 105.23C1052.31 102.171 1049.83 99.6914 1046.77 99.6914Z" fill="#234EEE" fill-opacity="0.2"/>
<path d="M1240.61 99.6914H1168.61C1165.56 99.6914 1163.08 102.171 1163.08 105.23C1163.08 108.289 1165.56 110.768 1168.61 110.768H1240.61C1243.67 110.768 1246.15 108.289 1246.15 105.23C1246.15 102.171 1243.67 99.6914 1240.61 99.6914Z" fill="#234EEE" fill-opacity="0.2"/>
<path d="M1323.69 99.6914H1307.08C1304.02 99.6914 1301.54 102.171 1301.54 105.23C1301.54 108.289 1304.02 110.768 1307.08 110.768H1323.69C1326.75 110.768 1329.23 108.289 1329.23 105.23C1329.23 102.171 1326.75 99.6914 1323.69 99.6914Z" fill="#234EEE" fill-opacity="0.2"/>
<path d="M1434.46 99.6914H1417.85C1414.79 99.6914 1412.31 102.171 1412.31 105.23C1412.31 108.289 1414.79 110.768 1417.85 110.768H1434.46C1437.52 110.768 1440 108.289 1440 105.23C1440 102.171 1437.52 99.6914 1434.46 99.6914Z" fill="#234EEE" fill-opacity="0.2"/>
<path d="M132.923 110.77H116.308C113.249 110.77 110.77 113.249 110.77 116.308C110.77 119.367 113.249 121.846 116.308 121.846H132.923C135.982 121.846 138.462 119.367 138.462 116.308C138.462 113.249 135.982 110.77 132.923 110.77Z" fill="#234EEE" fill-opacity="0.2"/>
<path d="M188.308 110.77H171.693C168.634 110.77 166.154 113.249 166.154 116.308C166.154 119.367 168.634 121.846 171.693 121.846H188.308C191.367 121.846 193.847 119.367 193.847 116.308C193.847 113.249 191.367 110.77 188.308 110.77Z" fill="#234EEE" fill-opacity="0.2"/>
<path d="M382.155 110.77H282.462C279.403 110.77 276.924 113.249 276.924 116.308C276.924 119.367 279.403 121.846 282.462 121.846H382.155C385.213 121.846 387.693 119.367 387.693 116.308C387.693 113.249 385.213 110.77 382.155 110.77Z" fill="#234EEE" fill-opacity="0.2"/>
<path d="M576 110.77H559.384C556.325 110.77 553.846 113.249 553.846 116.308C553.846 119.367 556.325 121.846 559.384 121.846H576C579.058 121.846 581.538 119.367 581.538 116.308C581.538 113.249 579.058 110.77 576 110.77Z" fill="#234EEE" fill-opacity="0.2"/>
<path d="M825.23 110.77H808.615C805.556 110.77 803.076 113.249 803.076 116.308C803.076 119.367 805.556 121.846 808.615 121.846H825.23C828.289 121.846 830.768 119.367 830.768 116.308C830.768 113.249 828.289 110.77 825.23 110.77Z" fill="#234EEE" fill-opacity="0.2"/>
<path d="M880.615 110.77H863.999C860.941 110.77 858.461 113.249 858.461 116.308C858.461 119.367 860.941 121.846 863.999 121.846H880.615C883.674 121.846 886.153 119.367 886.153 116.308C886.153 113.249 883.674 110.77 880.615 110.77Z" fill="#234EEE" fill-opacity="0.2"/>
<path d="M1102.15 110.77H1030.15C1027.09 110.77 1024.62 113.249 1024.62 116.308C1024.62 119.367 1027.09 121.846 1030.15 121.846H1102.15C1105.21 121.846 1107.69 119.367 1107.69 116.308C1107.69 113.249 1105.21 110.77 1102.15 110.77Z" fill="#234EEE" fill-opacity="0.2"/>
<path d="M1185.23 110.77H1168.61C1165.56 110.77 1163.08 113.249 1163.08 116.308C1163.08 119.367 1165.56 121.846 1168.61 121.846H1185.23C1188.29 121.846 1190.77 119.367 1190.77 116.308C1190.77 113.249 1188.29 110.77 1185.23 110.77Z" fill="#234EEE" fill-opacity="0.2"/>
<path d="M1323.69 110.77H1307.08C1304.02 110.77 1301.54 113.249 1301.54 116.308C1301.54 119.367 1304.02 121.846 1307.08 121.846H1323.69C1326.75 121.846 1329.23 119.367 1329.23 116.308C1329.23 113.249 1326.75 110.77 1323.69 110.77Z" fill="#234EEE" fill-opacity="0.2"/>
<path d="M1434.46 110.77H1417.85C1414.79 110.77 1412.31 113.249 1412.31 116.308C1412.31 119.367 1414.79 121.846 1417.85 121.846H1434.46C1437.52 121.846 1440 119.367 1440 116.308C1440 113.249 1437.52 110.77 1434.46 110.77Z" fill="#234EEE" fill-opacity="0.2"/>
<path d="M22.1538 121.846H5.53846C2.47965 121.846 0 124.325 0 127.384C0 130.443 2.47965 132.923 5.53846 132.923H22.1538C25.2127 132.923 27.6923 130.443 27.6923 127.384C27.6923 124.325 25.2127 121.846 22.1538 121.846Z" fill="#234EEE" fill-opacity="0.2"/>
<path d="M132.923 121.846H116.308C113.249 121.846 110.77 124.325 110.77 127.384C110.77 130.443 113.249 132.923 116.308 132.923H132.923C135.982 132.923 138.462 130.443 138.462 127.384C138.462 124.325 135.982 121.846 132.923 121.846Z" fill="#234EEE" fill-opacity="0.2"/>
<path d="M188.308 121.846H171.693C168.634 121.846 166.154 124.325 166.154 127.384C166.154 130.443 168.634 132.923 171.693 132.923H188.308C191.367 132.923 193.847 130.443 193.847 127.384C193.847 124.325 191.367 121.846 188.308 121.846Z" fill="#234EEE" fill-opacity="0.2"/>
<path d="M382.155 121.846H282.462C279.403 121.846 276.924 124.325 276.924 127.384C276.924 130.443 279.403 132.923 282.462 132.923H382.155C385.213 132.923 387.693 130.443 387.693 127.384C387.693 124.325 385.213 121.846 382.155 121.846Z" fill="#234EEE" fill-opacity="0.2"/>
<path d="M576 121.846H559.384C556.325 121.846 553.846 124.325 553.846 127.384C553.846 130.443 556.325 132.923 559.384 132.923H576C579.058 132.923 581.538 130.443 581.538 127.384C581.538 124.325 579.058 121.846 576 121.846Z" fill="#234EEE" fill-opacity="0.2"/>
<path d="M714.462 121.846H697.847C694.788 121.846 692.309 124.325 692.309 127.384C692.309 130.443 694.788 132.923 697.847 132.923H714.462C717.521 132.923 720.001 130.443 720.001 127.384C720.001 124.325 717.521 121.846 714.462 121.846Z" fill="#234EEE" fill-opacity="0.2"/>
<path d="M825.23 121.846H808.615C805.556 121.846 803.076 124.325 803.076 127.384C803.076 130.443 805.556 132.923 808.615 132.923H825.23C828.289 132.923 830.768 130.443 830.768 127.384C830.768 124.325 828.289 121.846 825.23 121.846Z" fill="#234EEE" fill-opacity="0.2"/>
<path d="M880.615 121.846H863.999C860.941 121.846 858.461 124.325 858.461 127.384C858.461 130.443 860.941 132.923 863.999 132.923H880.615C883.674 132.923 886.153 130.443 886.153 127.384C886.153 124.325 883.674 121.846 880.615 121.846Z" fill="#234EEE" fill-opacity="0.2"/>
<path d="M963.693 121.846H947.078C944.019 121.846 941.539 124.325 941.539 127.384C941.539 130.443 944.019 132.923 947.078 132.923H963.693C966.752 132.923 969.231 130.443 969.231 127.384C969.231 124.325 966.752 121.846 963.693 121.846Z" fill="#234EEE" fill-opacity="0.2"/>
<path d="M1129.85 121.846H1030.15C1027.09 121.846 1024.62 124.325 1024.62 127.384C1024.62 130.443 1027.09 132.923 1030.15 132.923H1129.85C1132.9 132.923 1135.38 130.443 1135.38 127.384C1135.38 124.325 1132.9 121.846 1129.85 121.846Z" fill="#234EEE" fill-opacity="0.2"/>
<path d="M1185.23 121.846H1168.61C1165.56 121.846 1163.08 124.325 1163.08 127.384C1163.08 130.443 1165.56 132.923 1168.61 132.923H1185.23C1188.29 132.923 1190.77 130.443 1190.77 127.384C1190.77 124.325 1188.29 121.846 1185.23 121.846Z" fill="#234EEE" fill-opacity="0.2"/>
<path d="M1323.69 121.846H1307.08C1304.02 121.846 1301.54 124.325 1301.54 127.384C1301.54 130.443 1304.02 132.923 1307.08 132.923H1323.69C1326.75 132.923 1329.23 130.443 1329.23 127.384C1329.23 124.325 1326.75 121.846 1323.69 121.846Z" fill="#234EEE" fill-opacity="0.2"/>
<path d="M1434.46 121.846H1417.85C1414.79 121.846 1412.31 124.325 1412.31 127.384C1412.31 130.443 1414.79 132.923 1417.85 132.923H1434.46C1437.52 132.923 1440 130.443 1440 127.384C1440 124.325 1437.52 121.846 1434.46 121.846Z" fill="#234EEE" fill-opacity="0.2"/>
<path d="M22.1538 132.922H5.53846C2.47965 132.922 0 135.402 0 138.46C0 141.519 2.47965 143.999 5.53846 143.999H22.1538C25.2127 143.999 27.6923 141.519 27.6923 138.46C27.6923 135.402 25.2127 132.922 22.1538 132.922Z" fill="#234EEE" fill-opacity="0.2"/>
<path d="M132.923 132.922H116.308C113.249 132.922 110.77 135.402 110.77 138.46C110.77 141.519 113.249 143.999 116.308 143.999H132.923C135.982 143.999 138.462 141.519 138.462 138.46C138.462 135.402 135.982 132.922 132.923 132.922Z" fill="#234EEE" fill-opacity="0.2"/>
<path d="M188.308 132.922H171.693C168.634 132.922 166.154 135.402 166.154 138.46C166.154 141.519 168.634 143.999 171.693 143.999H188.308C191.367 143.999 193.847 141.519 193.847 138.46C193.847 135.402 191.367 132.922 188.308 132.922Z" fill="#234EEE" fill-opacity="0.2"/>
<path d="M299.078 132.922H282.462C279.403 132.922 276.924 135.402 276.924 138.46C276.924 141.519 279.403 143.999 282.462 143.999H299.078C302.136 143.999 304.616 141.519 304.616 138.46C304.616 135.402 302.136 132.922 299.078 132.922Z" fill="#234EEE" fill-opacity="0.2"/>
<path d="M576 132.922H559.384C556.325 132.922 553.846 135.402 553.846 138.46C553.846 141.519 556.325 143.999 559.384 143.999H576C579.058 143.999 581.538 141.519 581.538 138.46C581.538 135.402 579.058 132.922 576 132.922Z" fill="#234EEE" fill-opacity="0.2"/>
<path d="M714.462 132.922H697.847C694.788 132.922 692.309 135.402 692.309 138.46C692.309 141.519 694.788 143.999 697.847 143.999H714.462C717.521 143.999 720.001 141.519 720.001 138.46C720.001 135.402 717.521 132.922 714.462 132.922Z" fill="#234EEE" fill-opacity="0.2"/>
<path d="M825.23 132.922H808.615C805.556 132.922 803.076 135.402 803.076 138.46C803.076 141.519 805.556 143.999 808.615 143.999H825.23C828.289 143.999 830.768 141.519 830.768 138.46C830.768 135.402 828.289 132.922 825.23 132.922Z" fill="#234EEE" fill-opacity="0.2"/>
<path d="M880.615 132.922H863.999C860.941 132.922 858.461 135.402 858.461 138.46C858.461 141.519 860.941 143.999 863.999 143.999H880.615C883.674 143.999 886.153 141.519 886.153 138.46C886.153 135.402 883.674 132.922 880.615 132.922Z" fill="#234EEE" fill-opacity="0.2"/>
<path d="M963.693 132.922H947.078C944.019 132.922 941.539 135.402 941.539 138.46C941.539 141.519 944.019 143.999 947.078 143.999H963.693C966.752 143.999 969.231 141.519 969.231 138.46C969.231 135.402 966.752 132.922 963.693 132.922Z" fill="#234EEE" fill-opacity="0.2"/>
<path d="M1019.08 132.922H1002.46C999.403 132.922 996.924 135.402 996.924 138.46C996.924 141.519 999.403 143.999 1002.46 143.999H1019.08C1022.14 143.999 1024.62 141.519 1024.62 138.46C1024.62 135.402 1022.14 132.922 1019.08 132.922Z" fill="#234EEE" fill-opacity="0.2"/>
<path d="M1129.85 132.922H1113.23C1110.17 132.922 1107.69 135.402 1107.69 138.46C1107.69 141.519 1110.17 143.999 1113.23 143.999H1129.85C1132.9 143.999 1135.38 141.519 1135.38 138.46C1135.38 135.402 1132.9 132.922 1129.85 132.922Z" fill="#234EEE" fill-opacity="0.2"/>
<path d="M1185.23 132.922H1168.61C1165.56 132.922 1163.08 135.402 1163.08 138.46C1163.08 141.519 1165.56 143.999 1168.61 143.999H1185.23C1188.29 143.999 1190.77 141.519 1190.77 138.46C1190.77 135.402 1188.29 132.922 1185.23 132.922Z" fill="#234EEE" fill-opacity="0.2"/>
<path d="M1323.69 132.922H1307.08C1304.02 132.922 1301.54 135.402 1301.54 138.46C1301.54 141.519 1304.02 143.999 1307.08 143.999H1323.69C1326.75 143.999 1329.23 141.519 1329.23 138.46C1329.23 135.402 1326.75 132.922 1323.69 132.922Z" fill="#234EEE" fill-opacity="0.2"/>
<path d="M1434.46 132.922H1417.85C1414.79 132.922 1412.31 135.402 1412.31 138.46C1412.31 141.519 1414.79 143.999 1417.85 143.999H1434.46C1437.52 143.999 1440 141.519 1440 138.46C1440 135.402 1437.52 132.922 1434.46 132.922Z" fill="#234EEE" fill-opacity="0.2"/>
<path d="M22.1538 144H5.53846C2.47965 144 0 146.48 0 149.538C0 152.597 2.47965 155.077 5.53846 155.077H22.1538C25.2127 155.077 27.6923 152.597 27.6923 149.538C27.6923 146.48 25.2127 144 22.1538 144Z" fill="#234EEE" fill-opacity="0.2"/>
<path d="M132.923 144H116.308C113.249 144 110.77 146.48 110.77 149.538C110.77 152.597 113.249 155.077 116.308 155.077H132.923C135.982 155.077 138.462 152.597 138.462 149.538C138.462 146.48 135.982 144 132.923 144Z" fill="#234EEE" fill-opacity="0.2"/>
<path d="M188.308 144H171.693C168.634 144 166.154 146.48 166.154 149.538C166.154 152.597 168.634 155.077 171.693 155.077H188.308C191.367 155.077 193.847 152.597 193.847 149.538C193.847 146.48 191.367 144 188.308 144Z" fill="#234EEE" fill-opacity="0.2"/>
<path d="M299.078 144H282.462C279.403 144 276.924 146.48 276.924 149.538C276.924 152.597 279.403 155.077 282.462 155.077H299.078C302.136 155.077 304.616 152.597 304.616 149.538C304.616 146.48 302.136 144 299.078 144Z" fill="#234EEE" fill-opacity="0.2"/>
<path d="M409.845 144H393.23C390.171 144 387.691 146.48 387.691 149.538C387.691 152.597 390.171 155.077 393.23 155.077H409.845C412.904 155.077 415.384 152.597 415.384 149.538C415.384 146.48 412.904 144 409.845 144Z" fill="#234EEE" fill-opacity="0.2"/>
<path d="M576 144H559.384C556.325 144 553.846 146.48 553.846 149.538C553.846 152.597 556.325 155.077 559.384 155.077H576C579.058 155.077 581.538 152.597 581.538 149.538C581.538 146.48 579.058 144 576 144Z" fill="#234EEE" fill-opacity="0.2"/>
<path d="M714.462 144H697.847C694.788 144 692.309 146.48 692.309 149.538C692.309 152.597 694.788 155.077 697.847 155.077H714.462C717.521 155.077 720.001 152.597 720.001 149.538C720.001 146.48 717.521 144 714.462 144Z" fill="#234EEE" fill-opacity="0.2"/>
<path d="M825.23 144H808.615C805.556 144 803.076 146.48 803.076 149.538C803.076 152.597 805.556 155.077 808.615 155.077H825.23C828.289 155.077 830.768 152.597 830.768 149.538C830.768 146.48 828.289 144 825.23 144Z" fill="#234EEE" fill-opacity="0.2"/>
<path d="M880.615 144H863.999C860.941 144 858.461 146.48 858.461 149.538C858.461 152.597 860.941 155.077 863.999 155.077H880.615C883.674 155.077 886.153 152.597 886.153 149.538C886.153 146.48 883.674 144 880.615 144Z" fill="#234EEE" fill-opacity="0.2"/>
<path d="M963.693 144H947.078C944.019 144 941.539 146.48 941.539 149.538C941.539 152.597 944.019 155.077 947.078 155.077H963.693C966.752 155.077 969.231 152.597 969.231 149.538C969.231 146.48 966.752 144 963.693 144Z" fill="#234EEE" fill-opacity="0.2"/>
<path d="M1019.08 144H1002.46C999.403 144 996.924 146.48 996.924 149.538C996.924 152.597 999.403 155.077 1002.46 155.077H1019.08C1022.14 155.077 1024.62 152.597 1024.62 149.538C1024.62 146.48 1022.14 144 1019.08 144Z" fill="#234EEE" fill-opacity="0.2"/>
<path d="M1129.85 144H1113.23C1110.17 144 1107.69 146.48 1107.69 149.538C1107.69 152.597 1110.17 155.077 1113.23 155.077H1129.85C1132.9 155.077 1135.38 152.597 1135.38 149.538C1135.38 146.48 1132.9 144 1129.85 144Z" fill="#234EEE" fill-opacity="0.2"/>
<path d="M1185.23 144H1168.61C1165.56 144 1163.08 146.48 1163.08 149.538C1163.08 152.597 1165.56 155.077 1168.61 155.077H1185.23C1188.29 155.077 1190.77 152.597 1190.77 149.538C1190.77 146.48 1188.29 144 1185.23 144Z" fill="#234EEE" fill-opacity="0.2"/>
<path d="M1323.69 144H1307.08C1304.02 144 1301.54 146.48 1301.54 149.538C1301.54 152.597 1304.02 155.077 1307.08 155.077H1323.69C1326.75 155.077 1329.23 152.597 1329.23 149.538C1329.23 146.48 1326.75 144 1323.69 144Z" fill="#234EEE" fill-opacity="0.2"/>
<path d="M1434.46 144H1417.85C1414.79 144 1412.31 146.48 1412.31 149.538C1412.31 152.597 1414.79 155.077 1417.85 155.077H1434.46C1437.52 155.077 1440 152.597 1440 149.538C1440 146.48 1437.52 144 1434.46 144Z" fill="#234EEE" fill-opacity="0.2"/>
<path d="M105.23 155.076H33.2299C30.1711 155.076 27.6914 157.556 27.6914 160.615C27.6914 163.673 30.1711 166.153 33.2299 166.153H105.23C108.289 166.153 110.768 163.673 110.768 160.615C110.768 157.556 108.289 155.076 105.23 155.076Z" fill="#234EEE" fill-opacity="0.2"/>
<path d="M243.693 155.076H171.693C168.634 155.076 166.154 157.556 166.154 160.615C166.154 163.673 168.634 166.153 171.693 166.153H243.693C246.752 166.153 249.231 163.673 249.231 160.615C249.231 157.556 246.752 155.076 243.693 155.076Z" fill="#234EEE" fill-opacity="0.2"/>
<path d="M299.078 155.076H282.462C279.403 155.076 276.924 157.556 276.924 160.615C276.924 163.673 279.403 166.153 282.462 166.153H299.078C302.136 166.153 304.616 163.673 304.616 160.615C304.616 157.556 302.136 155.076 299.078 155.076Z" fill="#234EEE" fill-opacity="0.2"/>
<path d="M409.845 155.076H393.23C390.171 155.076 387.691 157.556 387.691 160.615C387.691 163.673 390.171 166.153 393.23 166.153H409.845C412.904 166.153 415.384 163.673 415.384 160.615C415.384 157.556 412.904 155.076 409.845 155.076Z" fill="#234EEE" fill-opacity="0.2"/>
<path d="M659.076 155.076H559.384C556.325 155.076 553.846 157.556 553.846 160.615C553.846 163.673 556.325 166.153 559.384 166.153H659.076C662.135 166.153 664.615 163.673 664.615 160.615C664.615 157.556 662.135 155.076 659.076 155.076Z" fill="#234EEE" fill-opacity="0.2"/>
<path d="M797.539 155.076H697.847C694.788 155.076 692.309 157.556 692.309 160.615C692.309 163.673 694.788 166.153 697.847 166.153H797.539C800.598 166.153 803.078 163.673 803.078 160.615C803.078 157.556 800.598 155.076 797.539 155.076Z" fill="#234EEE" fill-opacity="0.2"/>
<path d="M880.615 155.076H863.999C860.941 155.076 858.461 157.556 858.461 160.615C858.461 163.673 860.941 166.153 863.999 166.153H880.615C883.674 166.153 886.153 163.673 886.153 160.615C886.153 157.556 883.674 155.076 880.615 155.076Z" fill="#234EEE" fill-opacity="0.2"/>
<path d="M963.693 155.076H947.078C944.019 155.076 941.539 157.556 941.539 160.615C941.539 163.673 944.019 166.153 947.078 166.153H963.693C966.752 166.153 969.231 163.673 969.231 160.615C969.231 157.556 966.752 155.076 963.693 155.076Z" fill="#234EEE" fill-opacity="0.2"/>
<path d="M1019.08 155.076H1002.46C999.403 155.076 996.924 157.556 996.924 160.615C996.924 163.673 999.403 166.153 1002.46 166.153H1019.08C1022.14 166.153 1024.62 163.673 1024.62 160.615C1024.62 157.556 1022.14 155.076 1019.08 155.076Z" fill="#234EEE" fill-opacity="0.2"/>
<path d="M1129.85 155.076H1113.23C1110.17 155.076 1107.69 157.556 1107.69 160.615C1107.69 163.673 1110.17 166.153 1113.23 166.153H1129.85C1132.9 166.153 1135.38 163.673 1135.38 160.615C1135.38 157.556 1132.9 155.076 1129.85 155.076Z" fill="#234EEE" fill-opacity="0.2"/>
<path d="M1185.23 155.076H1168.61C1165.56 155.076 1163.08 157.556 1163.08 160.615C1163.08 163.673 1165.56 166.153 1168.61 166.153H1185.23C1188.29 166.153 1190.77 163.673 1190.77 160.615C1190.77 157.556 1188.29 155.076 1185.23 155.076Z" fill="#234EEE" fill-opacity="0.2"/>
<path d="M1323.69 155.076H1307.08C1304.02 155.076 1301.54 157.556 1301.54 160.615C1301.54 163.673 1304.02 166.153 1307.08 166.153H1323.69C1326.75 166.153 1329.23 163.673 1329.23 160.615C1329.23 157.556 1326.75 155.076 1323.69 155.076Z" fill="#234EEE" fill-opacity="0.2"/>
<path d="M1434.46 155.076H1417.85C1414.79 155.076 1412.31 157.556 1412.31 160.615C1412.31 163.673 1414.79 166.153 1417.85 166.153H1434.46C1437.52 166.153 1440 163.673 1440 160.615C1440 157.556 1437.52 155.076 1434.46 155.076Z" fill="#234EEE" fill-opacity="0.2"/>
<path d="M105.23 166.154H33.2299C30.1711 166.154 27.6914 168.634 27.6914 171.693C27.6914 174.752 30.1711 177.231 33.2299 177.231H105.23C108.289 177.231 110.768 174.752 110.768 171.693C110.768 168.634 108.289 166.154 105.23 166.154Z" fill="#234EEE" fill-opacity="0.2"/>
<path d="M243.693 166.154H171.693C168.634 166.154 166.154 168.634 166.154 171.693C166.154 174.752 168.634 177.231 171.693 177.231H243.693C246.752 177.231 249.231 174.752 249.231 171.693C249.231 168.634 246.752 166.154 243.693 166.154Z" fill="#234EEE" fill-opacity="0.2"/>
<path d="M409.845 166.154H393.23C390.171 166.154 387.691 168.634 387.691 171.693C387.691 174.752 390.171 177.231 393.23 177.231H409.845C412.904 177.231 415.384 174.752 415.384 171.693C415.384 168.634 412.904 166.154 409.845 166.154Z" fill="#234EEE" fill-opacity="0.2"/>
<path d="M659.076 166.154H559.384C556.325 166.154 553.846 168.634 553.846 171.693C553.846 174.752 556.325 177.231 559.384 177.231H659.076C662.135 177.231 664.615 174.752 664.615 171.693C664.615 168.634 662.135 166.154 659.076 166.154Z" fill="#234EEE" fill-opacity="0.2"/>
<path d="M797.538 166.154H725.538C722.48 166.154 720 168.634 720 171.693C720 174.752 722.48 177.231 725.538 177.231H797.538C800.597 177.231 803.077 174.752 803.077 171.693C803.077 168.634 800.597 166.154 797.538 166.154Z" fill="#234EEE" fill-opacity="0.2"/>
<path d="M880.615 166.154H863.999C860.941 166.154 858.461 168.634 858.461 171.693C858.461 174.752 860.941 177.231 863.999 177.231H880.615C883.674 177.231 886.153 174.752 886.153 171.693C886.153 168.634 883.674 166.154 880.615 166.154Z" fill="#234EEE" fill-opacity="0.2"/>
<path d="M1019.08 166.154H1002.46C999.403 166.154 996.924 168.634 996.924 171.693C996.924 174.752 999.403 177.231 1002.46 177.231H1019.08C1022.14 177.231 1024.62 174.752 1024.62 171.693C1024.62 168.634 1022.14 166.154 1019.08 166.154Z" fill="#234EEE" fill-opacity="0.2"/>
<path d="M1129.85 166.154H1113.23C1110.17 166.154 1107.69 168.634 1107.69 171.693C1107.69 174.752 1110.17 177.231 1113.23 177.231H1129.85C1132.9 177.231 1135.38 174.752 1135.38 171.693C1135.38 168.634 1132.9 166.154 1129.85 166.154Z" fill="#234EEE" fill-opacity="0.2"/>
<path d="M1185.23 166.154H1168.61C1165.56 166.154 1163.08 168.634 1163.08 171.693C1163.08 174.752 1165.56 177.231 1168.61 177.231H1185.23C1188.29 177.231 1190.77 174.752 1190.77 171.693C1190.77 168.634 1188.29 166.154 1185.23 166.154Z" fill="#234EEE" fill-opacity="0.2"/>
<path d="M1323.69 166.154H1307.08C1304.02 166.154 1301.54 168.634 1301.54 171.693C1301.54 174.752 1304.02 177.231 1307.08 177.231H1323.69C1326.75 177.231 1329.23 174.752 1329.23 171.693C1329.23 168.634 1326.75 166.154 1323.69 166.154Z" fill="#234EEE" fill-opacity="0.2"/>
<path d="M1434.46 166.154H1417.85C1414.79 166.154 1412.31 168.634 1412.31 171.693C1412.31 174.752 1414.79 177.231 1417.85 177.231H1434.46C1437.52 177.231 1440 174.752 1440 171.693C1440 168.634 1437.52 166.154 1434.46 166.154Z" fill="#234EEE" fill-opacity="0.2"/>
</g>
<defs>
<clipPath id="clip0_564_1311">
<rect width="1440" height="180" fill="white"/>
</clipPath>
</defs>
</svg>
