<svg width="799" height="515" viewBox="0 0 799 515" fill="none" xmlns="http://www.w3.org/2000/svg">
<circle cx="3.54808" cy="3.54808" r="3.54808" transform="matrix(-1 0 0 1 460.067 297.625)" fill="#D9D9D9"/>
<circle cx="3.54808" cy="3.54808" r="3.54808" transform="matrix(-1 0 0 1 575.971 316.549)" fill="#D9D9D9"/>
<circle cx="3.54808" cy="3.54808" r="3.54808" transform="matrix(-1 0 0 1 593.711 113.125)" fill="#D9D9D9"/>
<circle cx="3.54808" cy="3.54808" r="3.54808" transform="matrix(-1 0 0 1 665.856 224.299)" fill="#D9D9D9"/>
<circle cx="3.54808" cy="3.54808" r="3.54808" transform="matrix(-1 0 0 1 494.366 419.443)" fill="#D9D9D9"/>
<circle cx="3.54808" cy="3.54808" r="3.54808" transform="matrix(-1 0 0 1 201.057 378.049)" fill="#D9D9D9"/>
<path d="M774.285 486.75L664.237 229.431M774.285 486.75L787.674 612.894M774.285 486.75L299.998 757.579L266.609 646.283M774.285 486.75L745.179 146.465M774.285 486.75L598.415 338.681M575.707 319.479L832.698 338.197M575.707 319.479L458.341 302.785M575.707 319.479L492.741 421.163M575.707 319.479L299.998 164.171M575.707 319.479L254.974 302.785M575.707 319.479L598.415 338.681M832.698 338.197L590.883 117.124M832.698 338.197L745.179 146.465M832.698 338.197L583.801 18.4756M832.698 338.197L787.674 612.894M832.698 338.197L951.076 319.479M832.698 338.197L902.511 657.32L958.158 617.953L962.711 508.681M832.698 338.197L958.158 434.646M832.698 338.197L951.076 258.773V319.479M590.883 117.124L664.237 229.431M590.883 117.124L395.611 70.5821M590.883 117.124L458.341 302.785M590.883 117.124L346.034 18.4756L300.504 160.63M664.237 229.431L427.261 187.741L745.179 146.465M664.237 229.431L598.415 338.681M787.674 612.894L962.711 508.681M492.741 421.163L380.434 612.894M492.741 421.163L545.859 626.048M492.741 421.163L157.843 378.668M380.434 612.894L266.609 522.846M380.434 612.894L266.609 646.283M380.434 612.894L597.966 751.508M380.434 612.894L157.843 378.668M380.434 612.894L745.179 146.465M266.609 522.846L458.341 302.785M266.609 522.846L254.974 302.785M266.609 522.846L129.513 633.13M266.609 522.846V646.283M266.609 522.846L157.843 378.668M458.341 302.785L395.611 70.5821M458.341 302.785H254.974M458.341 302.785L299.998 164.171M458.341 302.785L157.843 378.668M458.341 302.785L545.859 9.36963M458.341 302.785L380.434 488.446M299.998 164.171L395.611 70.5821M299.998 164.171L254.974 302.785M299.998 164.171L380.434 488.446M395.611 70.5821L545.859 9.36963M395.611 70.5821L141.149 43.2642M395.611 70.5821L254.974 302.785M254.974 302.785L3.54714 241.066L141.149 43.2642M254.974 302.785L545.859 626.048M254.974 302.785L300.504 160.63M254.974 302.785L251.432 294.711M141.149 43.2642L251.432 294.711M157.843 378.668L129.513 633.13M129.513 633.13L266.609 646.283M129.513 633.13L251.432 764.661L545.859 626.048M129.513 633.13L380.434 488.446M266.609 646.283L545.859 626.048M266.609 646.283L380.434 488.446M266.609 646.283L226.138 730.26M266.609 646.283L346.034 757.579M545.859 626.048L380.434 488.446M545.859 626.048L597.966 751.508M545.859 626.048L433.552 751.508M380.434 488.446L597.966 751.508M346.034 757.579L300.504 0.769531L251.432 294.711M346.034 757.579L598.415 338.681M745.179 146.465L941.464 31.6287L923.758 0.769531L745.179 146.465ZM745.179 146.465V0.769531H684.473L745.179 146.465ZM745.179 146.465L545.859 9.36963M745.179 146.465L814.992 43.2642M745.179 146.465L597.966 9.36963H545.859M545.859 9.36963L300.504 160.63M951.076 319.479L958.158 434.646M962.711 508.681L958.158 434.646M598.415 338.681L736.579 751.508" stroke="#A3A3A3" stroke-opacity="0.3" stroke-width="1.01178"/>
<circle cx="3.54808" cy="3.54808" r="3.54808" transform="matrix(-1 0 0 1 259.008 298.809)" fill="#D9D9D9"/>
<circle cx="3.54808" cy="3.54808" r="3.54808" transform="matrix(-1 0 0 1 303.952 159.25)" fill="#D9D9D9"/>
<circle cx="3.54808" cy="3.54808" r="3.54808" transform="matrix(-1 0 0 1 399.748 65.8184)" fill="#D9D9D9"/>
<circle cx="3.54808" cy="3.54808" r="3.54808" transform="matrix(-1 0 0 1 548.768 6.68359)" fill="#D9D9D9"/>
<circle cx="3.54808" cy="3.54808" r="3.54808" transform="matrix(-1 0 0 1 748.643 142.693)" fill="#D9D9D9"/>
<circle cx="3.54808" cy="3.54808" r="3.54808" transform="matrix(-1 0 0 1 600.807 335.473)" fill="#D9D9D9"/>
<circle cx="3.54808" cy="3.54808" r="3.54808" transform="matrix(-1 0 0 1 7.09613 239.674)" fill="#D9D9D9"/>
<circle cx="3.54808" cy="3.54808" r="3.54808" transform="matrix(-1 0 0 1 384.373 485.674)" fill="#D9D9D9"/>
</svg>
