<svg width="950" height="288" viewBox="0 0 950 288" fill="none" xmlns="http://www.w3.org/2000/svg">
<path d="M-10.3939 259.383L-9.37216 270.898C-9.0032 275.057 -5.33313 278.129 -1.17484 277.76C2.98346 277.391 6.05533 273.721 5.68638 269.562L4.66465 258.047C4.29569 253.889 0.625626 250.817 -3.53267 251.186C-7.69097 251.555 -10.7628 255.225 -10.3939 259.383Z" fill="#EEEEEE"/>
<path d="M-15.4242 202.693L-14.4024 214.208C-14.0335 218.366 -10.3634 221.438 -6.20511 221.069C-2.04681 220.7 1.02506 217.03 0.656102 212.872L-0.365627 201.357C-0.734583 197.198 -4.40465 194.126 -8.56295 194.495C-12.7212 194.864 -15.7931 198.534 -15.4242 202.693Z" fill="#EEEEEE"/>
<path d="M8.95182 286.236L9.97355 297.751C10.3425 301.909 14.0126 304.981 18.1709 304.612C22.3292 304.243 25.401 300.573 25.0321 296.415L24.0103 284.9C23.6414 280.741 19.9713 277.669 15.813 278.038C11.6547 278.407 8.58286 282.077 8.95182 286.236Z" fill="#EEEEEE"/>
<path d="M3.92155 229.544L4.94327 241.06C5.31223 245.218 8.9823 248.29 13.1406 247.921C17.2989 247.552 20.3708 243.882 20.0018 239.723L18.9801 228.208C18.6111 224.05 14.9411 220.978 10.7828 221.347C6.62446 221.716 3.55259 225.386 3.92155 229.544Z" fill="#EEEEEE"/>
<path d="M-1.10873 172.854L-0.0869989 184.369C0.281957 188.527 3.95202 191.599 8.11032 191.23C12.2686 190.861 15.3405 187.191 14.9715 183.033L13.9498 171.518C13.5808 167.359 9.91078 164.288 5.75248 164.657C1.59419 165.025 -1.47768 168.696 -1.10873 172.854Z" fill="#EEEEEE"/>
<path d="M-6.139 116.162L-5.11727 127.678C-4.74832 131.836 -1.07825 134.908 3.08005 134.539C7.23835 134.17 10.3102 130.5 9.94126 126.342L8.91953 114.826C8.55057 110.668 4.88051 107.596 0.72221 107.965C-3.43609 108.334 -6.50796 112.004 -6.139 116.162Z" fill="#EEEEEE"/>
<path d="M-11.1693 59.472L-10.1475 70.9873C-9.77859 75.1456 -6.10853 78.2175 -1.95023 77.8485C2.20807 77.4796 5.27994 73.8095 4.91098 69.6512L3.88926 58.1359C3.5203 53.9776 -0.149765 50.9057 -4.30806 51.2747C-8.46636 51.6436 -11.5382 55.3137 -11.1693 59.472Z" fill="#EEEEEE"/>
<path d="M-16.1986 2.78156L-15.1768 14.2969C-14.8079 18.4552 -11.1378 21.5271 -6.97952 21.1581C-2.82123 20.7892 0.250643 17.1191 -0.118312 12.9608L-1.14004 1.44545C-1.509 -2.71284 -5.17906 -5.78471 -9.33736 -5.41576C-13.4957 -5.0468 -16.5675 -1.37674 -16.1986 2.78156Z" fill="#EEEEEE"/>
<path d="M23.2663 256.397L24.288 267.912C24.657 272.07 28.327 275.142 32.4853 274.773C36.6436 274.404 39.7155 270.734 39.3465 266.576L38.3248 255.061C37.9558 250.902 34.2858 247.831 30.1275 248.199C25.9692 248.568 22.8973 252.238 23.2663 256.397Z" fill="#EEEEEE"/>
<path d="M18.236 199.705L19.2577 211.221C19.6267 215.379 23.2967 218.451 27.455 218.082C31.6133 217.713 34.6852 214.043 34.3163 209.885L33.2945 198.369C32.9256 194.211 29.2555 191.139 25.0972 191.508C20.9389 191.877 17.867 195.547 18.236 199.705Z" fill="#EEEEEE"/>
<path d="M13.2057 143.015L14.2275 154.53C14.5964 158.689 18.2665 161.76 22.4248 161.392C26.5831 161.023 29.6549 157.352 29.286 153.194L28.2643 141.679C27.8953 137.521 24.2252 134.449 20.0669 134.818C15.9086 135.187 12.8368 138.857 13.2057 143.015Z" fill="#EEEEEE"/>
<path d="M42.6112 283.25L48.663 351.456C49.032 355.614 52.702 358.686 56.8603 358.317C61.0186 357.948 64.0905 354.278 63.7215 350.12L57.6698 281.914C57.3008 277.755 53.6307 274.684 49.4724 275.052C45.3141 275.421 42.2423 279.092 42.6112 283.25Z" fill="#EEEEEE"/>
<path d="M27.5216 113.177L38.6034 238.074C38.9724 242.233 42.6425 245.304 46.8007 244.935C50.959 244.567 54.0309 240.896 53.662 236.738L42.5801 111.841C42.2112 107.683 38.5411 104.611 34.3828 104.98C30.2245 105.349 27.1526 109.019 27.5216 113.177Z" fill="#EEEEEE"/>
<path d="M22.4909 56.4857L23.5126 68.001C23.8816 72.1593 27.5516 75.2312 31.7099 74.8622C35.8682 74.4933 38.9401 70.8232 38.5711 66.6649L37.5494 55.1496C37.1805 50.9913 33.5104 47.9194 29.3521 48.2883C25.1938 48.6573 22.1219 52.3274 22.4909 56.4857Z" fill="#EEEEEE"/>
<path d="M17.4606 -0.205743L18.4823 11.3096C18.8513 15.4679 22.5214 18.5398 26.6797 18.1708C30.838 17.8019 33.9098 14.1318 33.5409 9.9735L32.5191 -1.54185C32.1502 -5.70015 28.4801 -8.77202 24.3218 -8.40306C20.1635 -8.03411 17.0917 -4.36404 17.4606 -0.205743Z" fill="#EEEEEE"/>
<path d="M56.9264 253.41L57.9482 264.926C58.3171 269.084 61.9872 272.156 66.1455 271.787C70.3038 271.418 73.3756 267.748 73.0067 263.59L71.985 252.074C71.616 247.916 67.9459 244.844 63.7876 245.213C59.6293 245.582 56.5575 249.252 56.9264 253.41Z" fill="#EEEEEE"/>
<path d="M51.8962 196.72L52.9179 208.235C53.2868 212.394 56.9569 215.466 61.1152 215.097C65.2735 214.728 68.3454 211.058 67.9764 206.899L66.9547 195.384C66.5857 191.226 62.9157 188.154 58.7574 188.523C54.5991 188.892 51.5272 192.562 51.8962 196.72Z" fill="#EEEEEE"/>
<path d="M46.8669 140.029L47.8886 151.544C48.2575 155.702 51.9276 158.774 56.0859 158.405C60.2442 158.036 63.3161 154.366 62.9471 150.208L61.9254 138.693C61.5564 134.534 57.8864 131.462 53.7281 131.831C49.5698 132.2 46.4979 135.87 46.8669 140.029Z" fill="#EEEEEE"/>
<path d="M76.2712 280.263L77.2929 291.778C77.6618 295.937 81.3319 299.009 85.4902 298.64C89.6485 298.271 92.7204 294.601 92.3514 290.442L91.3297 278.927C90.9607 274.769 87.2907 271.697 83.1324 272.066C78.9741 272.435 75.9022 276.105 76.2712 280.263Z" fill="#EEEEEE"/>
<path d="M71.2409 223.573L72.2626 235.088C72.6316 239.246 76.3016 242.318 80.4599 241.949C84.6182 241.58 87.6901 237.91 87.3211 233.752L86.2994 222.236C85.9305 218.078 82.2604 215.006 78.1021 215.375C73.9438 215.744 70.8719 219.414 71.2409 223.573Z" fill="#EEEEEE"/>
<path d="M61.1806 110.19L67.2323 178.397C67.6013 182.555 71.2714 185.627 75.4297 185.258C79.588 184.889 82.6598 181.219 82.2909 177.06L76.2391 108.854C75.8701 104.696 72.2001 101.624 68.0418 101.993C63.8835 102.362 60.8116 106.032 61.1806 110.19Z" fill="#EEEEEE"/>
<path d="M56.151 53.4993L57.1728 65.0147C57.5417 69.173 61.2118 72.2448 65.3701 71.8759C69.5284 71.5069 72.6003 67.8369 72.2313 63.6786L71.2096 52.1632C70.8406 48.0049 67.1705 44.9331 63.0122 45.302C58.854 45.671 55.7821 49.341 56.151 53.4993Z" fill="#EEEEEE"/>
<path d="M90.5866 250.424L91.6083 261.939C91.9773 266.098 95.6473 269.17 99.8056 268.801C103.964 268.432 107.036 264.762 106.667 260.603L105.645 249.088C105.276 244.93 101.606 241.858 97.4478 242.227C93.2895 242.596 90.2176 246.266 90.5866 250.424Z" fill="#EEEEEE"/>
<path d="M85.5563 193.734L86.578 205.249C86.947 209.407 90.6171 212.479 94.7754 212.11C98.9337 211.741 102.006 208.071 101.637 203.913L100.615 192.398C100.246 188.239 96.5758 185.167 92.4175 185.536C88.2592 185.905 85.1874 189.575 85.5563 193.734Z" fill="#EEEEEE"/>
<path d="M80.526 137.042L81.5478 148.558C81.9167 152.716 85.5868 155.788 89.7451 155.419C93.9034 155.05 96.9753 151.38 96.6063 147.222L95.5846 135.706C95.2156 131.548 91.5455 128.476 87.3872 128.845C83.229 129.214 80.1571 132.884 80.526 137.042Z" fill="#EEEEEE"/>
<path d="M109.932 277.276L115.983 345.482C116.352 349.641 120.022 352.713 124.181 352.344C128.339 351.975 131.411 348.305 131.042 344.146L124.99 275.94C124.621 271.782 120.951 268.71 116.793 269.079C112.634 269.448 109.563 273.118 109.932 277.276Z" fill="#EEEEEE"/>
<path d="M99.872 163.894L105.924 232.101C106.293 236.259 109.963 239.331 114.121 238.962C118.279 238.593 121.351 234.923 120.982 230.765L114.93 162.558C114.562 158.4 110.891 155.328 106.733 155.697C102.575 156.066 99.503 159.736 99.872 163.894Z" fill="#EEEEEE"/>
<path d="M94.8415 107.203L95.8632 118.719C96.2322 122.877 99.9022 125.949 104.061 125.58C108.219 125.211 111.291 121.541 110.922 117.383L109.9 105.867C109.531 101.709 105.861 98.6372 101.703 99.0061C97.5444 99.3751 94.4725 103.045 94.8415 107.203Z" fill="#EEEEEE"/>
<path d="M89.8122 50.513L90.8339 62.0284C91.2029 66.1867 94.8729 69.2585 99.0312 68.8896C103.19 68.5206 106.261 64.8505 105.892 60.6922L104.871 49.1769C104.502 45.0186 100.832 41.9467 96.6734 42.3157C92.5151 42.6846 89.4432 46.3547 89.8122 50.513Z" fill="#EEEEEE"/>
<path d="M84.7819 -6.1784L85.8036 5.33695C86.1726 9.49524 89.8426 12.5671 94.0009 12.1982C98.1592 11.8292 101.231 8.15914 100.862 4.00084L99.8404 -7.51451C99.4715 -11.6728 95.8014 -14.7447 91.6431 -14.3757C87.4848 -14.0068 84.4129 -10.3367 84.7819 -6.1784Z" fill="#EEEEEE"/>
<path d="M124.247 247.438L125.268 258.953C125.637 263.111 129.307 266.183 133.466 265.814C137.624 265.445 140.696 261.775 140.327 257.617L139.305 246.102C138.936 241.943 135.266 238.872 131.108 239.24C126.95 239.609 123.878 243.28 124.247 247.438Z" fill="#EEEEEE"/>
<path d="M119.216 190.746L120.238 202.262C120.607 206.42 124.277 209.492 128.436 209.123C132.594 208.754 135.666 205.084 135.297 200.926L134.275 189.41C133.906 185.252 130.236 182.18 126.078 182.549C121.919 182.918 118.848 186.588 119.216 190.746Z" fill="#EEEEEE"/>
<path d="M114.187 134.056L115.209 145.571C115.578 149.73 119.248 152.801 123.406 152.433C127.565 152.064 130.636 148.394 130.267 144.235L129.246 132.72C128.877 128.562 125.207 125.49 121.048 125.859C116.89 126.228 113.818 129.898 114.187 134.056Z" fill="#EEEEEE"/>
<path d="M138.562 217.598L154.674 399.187C155.043 403.345 158.713 406.417 162.871 406.048C167.029 405.679 170.101 402.009 169.732 397.85L153.62 216.262C153.251 212.104 149.581 209.032 145.423 209.401C141.265 209.77 138.193 213.44 138.562 217.598Z" fill="#EEEEEE"/>
<path d="M128.502 104.217L134.554 172.423C134.923 176.581 138.593 179.653 142.751 179.284C146.909 178.915 149.981 175.245 149.612 171.087L143.56 102.88C143.191 98.7222 139.521 95.6503 135.363 96.0193C131.205 96.3882 128.133 100.058 128.502 104.217Z" fill="#EEEEEE"/>
<path d="M123.471 47.5257L124.493 59.041C124.862 63.1993 128.532 66.2712 132.69 65.9023C136.849 65.5333 139.921 61.8632 139.552 57.7049L138.53 46.1896C138.161 42.0313 134.491 38.9594 130.333 39.3284C126.174 39.6973 123.102 43.3674 123.471 47.5257Z" fill="#EEEEEE"/>
<path d="M157.907 244.45L168.989 369.348C169.358 373.506 173.028 376.578 177.186 376.209C181.345 375.84 184.417 372.17 184.048 368.012L172.966 243.114C172.597 238.956 168.927 235.884 164.769 236.253C160.61 236.622 157.538 240.292 157.907 244.45Z" fill="#EEEEEE"/>
<path d="M152.878 187.76L153.899 199.275C154.268 203.434 157.938 206.506 162.097 206.137C166.255 205.768 169.327 202.098 168.958 197.939L167.936 186.424C167.567 182.266 163.897 179.194 159.739 179.563C155.581 179.932 152.509 183.602 152.878 187.76Z" fill="#EEEEEE"/>
<path d="M147.847 131.069L148.869 142.584C149.238 146.742 152.908 149.814 157.066 149.445C161.225 149.076 164.297 145.406 163.928 141.248L162.906 129.733C162.537 125.574 158.867 122.502 154.709 122.871C150.55 123.24 147.478 126.91 147.847 131.069Z" fill="#EEEEEE"/>
<path d="M177.252 271.303L183.304 339.509C183.673 343.667 187.343 346.739 191.501 346.37C195.659 346.001 198.731 342.331 198.362 338.173L192.31 269.966C191.941 265.808 188.271 262.736 184.113 263.105C179.955 263.474 176.883 267.144 177.252 271.303Z" fill="#EEEEEE"/>
<path d="M162.162 101.23L173.244 226.127C173.613 230.285 177.283 233.357 181.441 232.988C185.6 232.619 188.672 228.949 188.303 224.791L177.221 99.8936C176.852 95.7354 173.182 92.6635 169.023 93.0324C164.865 93.4014 161.793 97.0715 162.162 101.23Z" fill="#EEEEEE"/>
<path d="M157.132 44.5394L158.154 56.0547C158.523 60.213 162.193 63.2849 166.352 62.9159C170.51 62.547 173.582 58.8769 173.213 54.7186L172.191 43.2033C171.822 39.045 168.152 35.9731 163.994 36.3421C159.835 36.711 156.764 40.3811 157.132 44.5394Z" fill="#EEEEEE"/>
<path d="M152.102 -12.1511L153.124 -0.63571C153.493 3.52259 157.163 6.59446 161.321 6.2255C165.48 5.85655 168.551 2.18648 168.182 -1.97182L167.161 -13.4872C166.792 -17.6455 163.122 -20.7173 158.963 -20.3484C154.805 -19.9794 151.733 -16.3094 152.102 -12.1511Z" fill="#EEEEEE"/>
<path d="M191.567 241.464L192.589 252.98C192.958 257.138 196.628 260.21 200.786 259.841C204.944 259.472 208.016 255.802 207.647 251.643L206.626 240.128C206.257 235.97 202.587 232.898 198.428 233.267C194.27 233.636 191.198 237.306 191.567 241.464Z" fill="#EEEEEE"/>
<path d="M186.537 184.773L187.559 196.288C187.927 200.446 191.598 203.518 195.756 203.149C199.914 202.78 202.986 199.11 202.617 194.952L201.595 183.437C201.226 179.278 197.556 176.206 193.398 176.575C189.24 176.944 186.168 180.614 186.537 184.773Z" fill="#EEEEEE"/>
<path d="M181.507 128.082L182.528 139.598C182.897 143.756 186.567 146.828 190.726 146.459C194.884 146.09 197.956 142.42 197.587 138.262L196.565 126.746C196.196 122.588 192.526 119.516 188.368 119.885C184.209 120.254 181.138 123.924 181.507 128.082Z" fill="#EEEEEE"/>
<path d="M205.883 211.625L216.965 336.522C217.334 340.681 221.004 343.753 225.162 343.384C229.32 343.015 232.392 339.345 232.023 335.186L220.941 210.289C220.573 206.131 216.902 203.059 212.744 203.428C208.586 203.797 205.514 207.467 205.883 211.625Z" fill="#EEEEEE"/>
<path d="M195.822 98.243L201.874 166.449C202.243 170.608 205.913 173.679 210.071 173.31C214.23 172.942 217.301 169.271 216.932 165.113L210.881 96.9069C210.512 92.7486 206.842 89.6767 202.683 90.0456C198.525 90.4146 195.453 94.0847 195.822 98.243Z" fill="#EEEEEE"/>
<path d="M190.793 41.553L191.814 53.0684C192.183 57.2267 195.853 60.2986 200.012 59.9296C204.17 59.5606 207.242 55.8906 206.873 51.7323L205.851 40.2169C205.482 36.0586 201.812 32.9868 197.654 33.3557C193.496 33.7247 190.424 37.3947 190.793 41.553Z" fill="#EEEEEE"/>
<path d="M230.258 295.168L231.28 306.684C231.649 310.842 235.319 313.914 239.478 313.545C243.636 313.176 246.708 309.506 246.339 305.348L245.317 293.832C244.948 289.674 241.278 286.602 237.12 286.971C232.961 287.34 229.89 291.01 230.258 295.168Z" fill="#EEEEEE"/>
<path d="M225.228 238.477L226.25 249.992C226.619 254.151 230.289 257.222 234.447 256.853C238.606 256.484 241.677 252.814 241.308 248.656L240.287 237.141C239.918 232.982 236.248 229.911 232.089 230.28C227.931 230.649 224.859 234.319 225.228 238.477Z" fill="#EEEEEE"/>
<path d="M220.198 181.786L221.22 193.302C221.589 197.46 225.259 200.532 229.417 200.163C233.575 199.794 236.647 196.124 236.278 191.966L235.256 180.45C234.887 176.292 231.217 173.22 227.059 173.589C222.901 173.958 219.829 177.628 220.198 181.786Z" fill="#EEEEEE"/>
<path d="M215.168 125.096L216.189 136.611C216.558 140.77 220.228 143.842 224.387 143.473C228.545 143.104 231.617 139.434 231.248 135.275L230.226 123.76C229.857 119.602 226.187 116.53 222.029 116.899C217.871 117.268 214.799 120.938 215.168 125.096Z" fill="#EEEEEE"/>
<path d="M234.512 151.948L250.624 333.536C250.993 337.694 254.663 340.766 258.821 340.397C262.98 340.028 266.051 336.358 265.682 332.2L249.571 150.612C249.202 146.454 245.532 143.382 241.373 143.751C237.215 144.12 234.143 147.79 234.512 151.948Z" fill="#EEEEEE"/>
<path d="M229.482 95.2571L230.504 106.772C230.873 110.931 234.543 114.003 238.701 113.634C242.859 113.265 245.931 109.595 245.562 105.436L244.541 93.921C244.172 89.7627 240.502 86.6909 236.343 87.0598C232.185 87.4288 229.113 91.0988 229.482 95.2571Z" fill="#EEEEEE"/>
<path d="M224.452 38.5657L225.474 50.0811C225.843 54.2394 229.513 57.3113 233.671 56.9423C237.829 56.5733 240.901 52.9033 240.532 48.745L239.51 37.2296C239.141 33.0713 235.471 29.9995 231.313 30.3684C227.155 30.7374 224.083 34.4074 224.452 38.5657Z" fill="#EEEEEE"/>
<path d="M219.423 -18.1247L220.444 -6.60934C220.813 -2.45104 224.483 0.620824 228.642 0.251868C232.8 -0.117088 235.872 -3.78715 235.503 -7.94545L234.481 -19.4608C234.112 -23.6191 230.442 -26.691 226.284 -26.322C222.125 -25.9531 219.054 -22.283 219.423 -18.1247Z" fill="#EEEEEE"/>
<path d="M263.918 292.182L264.939 303.697C265.308 307.856 268.978 310.927 273.137 310.559C277.295 310.19 280.367 306.519 279.998 302.361L278.976 290.846C278.607 286.688 274.937 283.616 270.779 283.985C266.621 284.354 263.549 288.024 263.918 292.182Z" fill="#EEEEEE"/>
<path d="M258.887 235.492L259.909 247.007C260.278 251.165 263.948 254.237 268.106 253.868C272.265 253.499 275.337 249.829 274.968 245.671L273.946 234.155C273.577 229.997 269.907 226.925 265.749 227.294C261.59 227.663 258.518 231.333 258.887 235.492Z" fill="#EEEEEE"/>
<path d="M253.858 178.8L254.88 190.315C255.249 194.474 258.919 197.546 263.077 197.177C267.235 196.808 270.307 193.138 269.938 188.979L268.917 177.464C268.548 173.306 264.878 170.234 260.719 170.603C256.561 170.972 253.489 174.642 253.858 178.8Z" fill="#EEEEEE"/>
<path d="M248.828 122.109L249.85 133.624C250.218 137.782 253.889 140.854 258.047 140.485C262.205 140.116 265.277 136.446 264.908 132.288L263.886 120.773C263.517 116.614 259.847 113.542 255.689 113.911C251.531 114.28 248.459 117.95 248.828 122.109Z" fill="#EEEEEE"/>
<path d="M273.203 205.652L289.315 387.24C289.684 391.399 293.354 394.47 297.513 394.101C301.671 393.733 304.743 390.062 304.374 385.904L288.262 204.316C287.893 200.158 284.223 197.086 280.065 197.455C275.906 197.824 272.835 201.494 273.203 205.652Z" fill="#EEEEEE"/>
<path d="M263.143 92.2703L269.195 160.477C269.564 164.635 273.234 167.707 277.393 167.338C281.551 166.969 284.623 163.299 284.254 159.14L278.202 90.9342C277.833 86.7759 274.163 83.704 270.005 84.073C265.846 84.4419 262.774 88.112 263.143 92.2703Z" fill="#EEEEEE"/>
<path d="M292.548 232.505L293.569 244.021C293.938 248.179 297.608 251.251 301.767 250.882C305.925 250.513 308.997 246.843 308.628 242.684L307.606 231.169C307.237 227.011 303.567 223.939 299.409 224.308C295.25 224.677 292.179 228.347 292.548 232.505Z" fill="#EEEEEE"/>
<path d="M287.517 175.814L288.539 187.329C288.908 191.487 292.578 194.559 296.736 194.19C300.895 193.821 303.966 190.151 303.598 185.993L302.576 174.478C302.207 170.319 298.537 167.248 294.378 167.616C290.22 167.985 287.148 171.655 287.517 175.814Z" fill="#EEEEEE"/>
<path d="M282.488 119.122L283.51 130.638C283.879 134.796 287.549 137.868 291.707 137.499C295.865 137.13 298.937 133.46 298.568 129.302L297.546 117.786C297.178 113.628 293.507 110.556 289.349 110.925C285.191 111.294 282.119 114.964 282.488 119.122Z" fill="#EEEEEE"/>
<path d="M296.803 89.2839L312.915 270.872C313.284 275.03 316.954 278.102 321.112 277.733C325.271 277.364 328.342 273.694 327.973 269.536L311.862 87.9478C311.493 83.7895 307.823 80.7177 303.664 81.0866C299.506 81.4556 296.434 85.1256 296.803 89.2839Z" fill="#EEEEEE"/>
<path d="M291.773 32.5921L292.795 44.1075C293.164 48.2658 296.834 51.3376 300.992 50.9687C305.15 50.5997 308.222 46.9296 307.853 42.7713L306.832 31.256C306.463 27.0977 302.793 24.0258 298.634 24.3948C294.476 24.7637 291.404 28.4338 291.773 32.5921Z" fill="#EEEEEE"/>
<path d="M326.209 229.518L332.261 297.725C332.63 301.883 336.3 304.955 340.458 304.586C344.616 304.217 347.688 300.547 347.319 296.389L341.267 228.182C340.898 224.024 337.228 220.952 333.07 221.321C328.912 221.69 325.84 225.36 326.209 229.518Z" fill="#EEEEEE"/>
<path d="M321.178 172.827L322.2 184.343C322.569 188.501 326.239 191.573 330.397 191.204C334.556 190.835 337.628 187.165 337.259 183.007L336.237 171.491C335.868 167.333 332.198 164.261 328.04 164.63C323.881 164.999 320.809 168.669 321.178 172.827Z" fill="#EEEEEE"/>
<path d="M311.118 59.4451L317.17 127.651C317.539 131.81 321.209 134.882 325.367 134.513C329.525 134.144 332.597 130.474 332.228 126.315L326.177 58.109C325.808 53.9507 322.138 50.8788 317.979 51.2478C313.821 51.6168 310.749 55.2868 311.118 59.4451Z" fill="#EEEEEE"/>
<path d="M340.523 199.679L346.575 267.886C346.944 272.044 350.614 275.116 354.772 274.747C358.931 274.378 362.003 270.708 361.634 266.55L355.582 198.343C355.213 194.185 351.543 191.113 347.385 191.482C343.226 191.851 340.154 195.521 340.523 199.679Z" fill="#EEEEEE"/>
<path d="M325.434 29.6067L336.516 154.504C336.884 158.662 340.555 161.734 344.713 161.365C348.871 160.996 351.943 157.326 351.574 153.168L340.492 28.2706C340.123 24.1123 336.453 21.0404 332.295 21.4094C328.137 21.7784 325.065 25.4484 325.434 29.6067Z" fill="#EEEEEE"/>
<path d="M364.898 283.222L370.95 351.429C371.319 355.587 374.989 358.659 379.147 358.29C383.306 357.921 386.378 354.251 386.009 350.093L379.957 281.886C379.588 277.728 375.918 274.656 371.76 275.025C367.601 275.394 364.529 279.064 364.898 283.222Z" fill="#EEEEEE"/>
<path d="M359.869 226.532L360.891 238.047C361.259 242.205 364.93 245.277 369.088 244.908C373.246 244.539 376.318 240.869 375.949 236.711L374.927 225.195C374.558 221.037 370.888 217.965 366.73 218.334C362.572 218.703 359.5 222.373 359.869 226.532Z" fill="#EEEEEE"/>
<path d="M354.839 169.84L355.86 181.356C356.229 185.514 359.899 188.586 364.058 188.217C368.216 187.848 371.288 184.178 370.919 180.019L369.897 168.504C369.528 164.346 365.858 161.274 361.7 161.643C357.541 162.012 354.47 165.682 354.839 169.84Z" fill="#EEEEEE"/>
<path d="M349.808 113.15L350.83 124.665C351.199 128.823 354.869 131.895 359.027 131.526C363.186 131.157 366.257 127.487 365.889 123.329L364.867 111.814C364.498 107.655 360.828 104.583 356.669 104.952C352.511 105.321 349.439 108.991 349.808 113.15Z" fill="#EEEEEE"/>
<path d="M344.778 56.4583L345.8 67.9737C346.169 72.132 349.839 75.2038 353.997 74.8349C358.155 74.4659 361.227 70.7959 360.858 66.6376L359.837 55.1222C359.468 50.9639 355.798 47.892 351.639 48.261C347.481 48.63 344.409 52.3 344.778 56.4583Z" fill="#EEEEEE"/>
<path d="M369.154 140.002L395.326 434.972C395.695 439.13 399.365 442.202 403.523 441.833C407.682 441.464 410.754 437.794 410.385 433.636L384.213 138.666C383.844 134.507 380.174 131.435 376.015 131.804C371.857 132.173 368.785 135.843 369.154 140.002Z" fill="#EEEEEE"/>
<path d="M364.124 83.3109L365.145 94.8262C365.514 98.9845 369.184 102.056 373.343 101.687C377.501 101.318 380.573 97.6484 380.204 93.4901L379.182 81.9748C378.813 77.8165 375.143 74.7446 370.985 75.1135C366.827 75.4825 363.755 79.1526 364.124 83.3109Z" fill="#EEEEEE"/>
<path d="M359.093 26.6204L360.115 38.1358C360.484 42.2941 364.154 45.3659 368.312 44.997C372.471 44.628 375.543 40.958 375.174 36.7997L374.152 25.2843C373.783 21.126 370.113 18.0542 365.955 18.4231C361.796 18.7921 358.724 22.4621 359.093 26.6204Z" fill="#EEEEEE"/>
<path d="M398.559 280.236L399.581 291.751C399.95 295.909 403.62 298.981 407.778 298.612C411.937 298.243 415.008 294.573 414.64 290.415L413.618 278.9C413.249 274.741 409.579 271.669 405.42 272.038C401.262 272.407 398.19 276.077 398.559 280.236Z" fill="#EEEEEE"/>
<path d="M393.529 223.544L394.551 235.06C394.92 239.218 398.59 242.29 402.748 241.921C406.906 241.552 409.978 237.882 409.609 233.723L408.587 222.208C408.219 218.05 404.548 214.978 400.39 215.347C396.232 215.716 393.16 219.386 393.529 223.544Z" fill="#EEEEEE"/>
<path d="M388.499 166.854L389.52 178.369C389.889 182.527 393.559 185.599 397.718 185.23C401.876 184.861 404.948 181.191 404.579 177.033L403.557 165.518C403.188 161.359 399.518 158.288 395.36 158.657C391.202 159.025 388.13 162.696 388.499 166.854Z" fill="#EEEEEE"/>
<path d="M378.439 53.4725L384.491 121.679C384.86 125.837 388.53 128.909 392.688 128.54C396.847 128.171 399.919 124.501 399.55 120.343L393.498 52.1364C393.129 47.9781 389.459 44.9062 385.301 45.2751C381.142 45.6441 378.07 49.3142 378.439 53.4725Z" fill="#EEEEEE"/>
<path d="M407.844 193.706L413.895 261.912C414.264 266.07 417.934 269.142 422.093 268.773C426.251 268.404 429.323 264.734 428.954 260.576L422.902 192.37C422.533 188.211 418.863 185.14 414.705 185.509C410.547 185.877 407.475 189.548 407.844 193.706Z" fill="#EEEEEE"/>
<path d="M397.783 80.324L403.835 148.53C404.204 152.689 407.874 155.76 412.032 155.392C416.19 155.023 419.262 151.352 418.893 147.194L412.842 78.9879C412.473 74.8296 408.803 71.7577 404.644 72.1267C400.486 72.4957 397.414 76.1657 397.783 80.324Z" fill="#EEEEEE"/>
<path d="M392.754 23.6331L393.775 35.1485C394.144 39.3068 397.814 42.3786 401.973 42.0097C406.131 41.6407 409.203 37.9707 408.834 33.8124L407.812 22.297C407.443 18.1387 403.773 15.0668 399.615 15.4358C395.456 15.8048 392.385 19.4748 392.754 23.6331Z" fill="#EEEEEE"/>
<path d="M432.219 277.248L433.241 288.764C433.61 292.922 437.28 295.994 441.438 295.625C445.597 295.256 448.669 291.586 448.3 287.428L447.278 275.912C446.909 271.754 443.239 268.682 439.081 269.051C434.922 269.42 431.85 273.09 432.219 277.248Z" fill="#EEEEEE"/>
<path d="M427.189 220.558L428.211 232.073C428.58 236.232 432.25 239.303 436.408 238.934C440.566 238.566 443.638 234.895 443.269 230.737L442.248 219.222C441.879 215.064 438.209 211.992 434.05 212.361C429.892 212.73 426.82 216.4 427.189 220.558Z" fill="#EEEEEE"/>
<path d="M422.159 163.867L423.181 175.383C423.55 179.541 427.22 182.613 431.378 182.244C435.536 181.875 438.608 178.205 438.239 174.047L437.217 162.531C436.848 158.373 433.178 155.301 429.02 155.67C424.862 156.039 421.79 159.709 422.159 163.867Z" fill="#EEEEEE"/>
<path d="M417.129 107.176L418.15 118.691C418.519 122.85 422.189 125.922 426.348 125.553C430.506 125.184 433.578 121.514 433.209 117.355L432.187 105.84C431.818 101.682 428.148 98.6098 423.99 98.9788C419.831 99.3477 416.76 103.018 417.129 107.176Z" fill="#EEEEEE"/>
<path d="M412.099 50.4857L413.121 62.001C413.49 66.1593 417.16 69.2312 421.318 68.8622C425.477 68.4933 428.548 64.8232 428.18 60.6649L427.158 49.1496C426.789 44.9913 423.119 41.9194 418.96 42.2883C414.802 42.6573 411.73 46.3274 412.099 50.4857Z" fill="#EEEEEE"/>
<path d="M446.534 247.41L452.586 315.616C452.955 319.775 456.625 322.846 460.783 322.477C464.941 322.108 468.013 318.438 467.644 314.28L461.593 246.074C461.224 241.916 457.554 238.844 453.395 239.213C449.237 239.582 446.165 243.252 446.534 247.41Z" fill="#EEEEEE"/>
<path d="M441.505 190.719L442.526 202.234C442.895 206.393 446.565 209.465 450.724 209.096C454.882 208.727 457.954 205.057 457.585 200.898L456.563 189.383C456.194 185.225 452.524 182.153 448.366 182.522C444.207 182.891 441.136 186.561 441.505 190.719Z" fill="#EEEEEE"/>
<path d="M426.414 20.6467L437.496 145.544C437.865 149.702 441.535 152.774 445.693 152.405C449.852 152.036 452.923 148.366 452.555 144.208L441.473 19.3106C441.104 15.1524 437.434 12.0805 433.275 12.4494C429.117 12.8184 426.045 16.4885 426.414 20.6467Z" fill="#EEEEEE"/>
<path d="M465.879 274.262L466.9 285.777C467.269 289.936 470.939 293.008 475.098 292.639C479.256 292.27 482.328 288.6 481.959 284.441L480.937 272.926C480.568 268.768 476.898 265.696 472.74 266.065C468.581 266.434 465.51 270.104 465.879 274.262Z" fill="#EEEEEE"/>
<path d="M460.849 217.572L461.871 229.087C462.24 233.245 465.91 236.317 470.068 235.948C474.227 235.579 477.298 231.909 476.93 227.751L475.908 216.235C475.539 212.077 471.869 209.005 467.71 209.374C463.552 209.743 460.48 213.413 460.849 217.572Z" fill="#EEEEEE"/>
<path d="M455.819 160.88L456.841 172.396C457.21 176.554 460.88 179.626 465.038 179.257C469.196 178.888 472.268 175.218 471.899 171.059L470.878 159.544C470.509 155.386 466.839 152.314 462.68 152.683C458.522 153.052 455.45 156.722 455.819 160.88Z" fill="#EEEEEE"/>
<path d="M445.759 47.4988L451.81 115.705C452.179 119.863 455.849 122.935 460.008 122.566C464.166 122.197 467.238 118.527 466.869 114.369L460.817 46.1627C460.448 42.0044 456.778 38.9326 452.62 39.3015C448.462 39.6705 445.39 43.3405 445.759 47.4988Z" fill="#EEEEEE"/>
<path d="M475.164 187.732L481.216 255.939C481.585 260.097 485.255 263.169 489.413 262.8C493.571 262.431 496.643 258.761 496.274 254.602L490.222 186.396C489.854 182.238 486.183 179.166 482.025 179.535C477.867 179.904 474.795 183.574 475.164 187.732Z" fill="#EEEEEE"/>
<path d="M460.074 17.6594L471.156 142.557C471.525 146.715 475.195 149.787 479.353 149.418C483.512 149.049 486.584 145.379 486.215 141.221L475.133 16.3233C474.764 12.165 471.094 9.09317 466.936 9.46213C462.777 9.83108 459.705 13.5012 460.074 17.6594Z" fill="#EEEEEE"/>
<path d="M499.54 271.276L500.561 282.791C500.93 286.949 504.6 290.021 508.759 289.652C512.917 289.283 515.989 285.613 515.62 281.455L514.598 269.94C514.229 265.781 510.559 262.709 506.401 263.078C502.243 263.447 499.171 267.117 499.54 271.276Z" fill="#EEEEEE"/>
<path d="M494.509 214.584L495.531 226.1C495.9 230.258 499.57 233.33 503.728 232.961C507.887 232.592 510.959 228.922 510.59 224.764L509.568 213.248C509.199 209.09 505.529 206.018 501.371 206.387C497.212 206.756 494.14 210.426 494.509 214.584Z" fill="#EEEEEE"/>
<path d="M474.39 -12.179L490.502 169.409C490.871 173.568 494.541 176.639 498.699 176.27C502.857 175.901 505.929 172.231 505.56 168.073L489.449 -13.5151C489.08 -17.6734 485.409 -20.7452 481.251 -20.3763C477.093 -20.0073 474.021 -16.3373 474.39 -12.179Z" fill="#EEEEEE"/>
<path d="M513.854 241.437L529.966 423.025C530.335 427.184 534.005 430.256 538.163 429.887C542.321 429.518 545.393 425.848 545.024 421.689L528.912 240.101C528.543 235.943 524.873 232.871 520.715 233.24C516.557 233.609 513.485 237.279 513.854 241.437Z" fill="#EEEEEE"/>
<path d="M488.704 -42.0183L509.846 196.261C510.215 200.419 513.885 203.491 518.043 203.122C522.201 202.753 525.273 199.083 524.904 194.925L503.762 -43.3544C503.393 -47.5127 499.723 -50.5846 495.565 -50.2156C491.407 -49.8467 488.335 -46.1766 488.704 -42.0183Z" fill="#EEEEEE"/>
<path d="M533.2 268.29L539.252 336.496C539.621 340.654 543.291 343.726 547.449 343.357C551.607 342.988 554.679 339.318 554.31 335.16L548.259 266.954C547.89 262.795 544.22 259.724 540.061 260.093C535.903 260.461 532.831 264.132 533.2 268.29Z" fill="#EEEEEE"/>
<path d="M508.049 -15.1648L529.191 223.114C529.56 227.273 533.23 230.344 537.389 229.976C541.547 229.607 544.619 225.936 544.25 221.778L523.108 -16.5009C522.739 -20.6592 519.069 -23.7311 514.911 -23.3621C510.752 -22.9932 507.68 -19.3231 508.049 -15.1648Z" fill="#EEEEEE"/>
<path d="M522.365 -45.0042L558.597 363.348C558.966 367.506 562.636 370.578 566.794 370.209C570.952 369.84 574.024 366.17 573.655 362.012L537.423 -46.3403C537.054 -50.4986 533.384 -53.5705 529.226 -53.2015C525.067 -52.8326 521.996 -49.1625 522.365 -45.0042Z" fill="#EEEEEE"/>
<path d="M551.771 95.2302L567.883 276.818C568.252 280.977 571.922 284.049 576.08 283.68C580.238 283.311 583.31 279.641 582.941 275.482L566.829 93.8941C566.46 89.7358 562.79 86.664 558.632 87.0329C554.474 87.4019 551.402 91.0719 551.771 95.2302Z" fill="#EEEEEE"/>
<path d="M546.74 38.5384L547.762 50.0537C548.131 54.212 551.801 57.2839 555.959 56.915C560.117 56.546 563.189 52.8759 562.82 48.7176L561.798 37.2023C561.429 33.044 557.759 29.9721 553.601 30.3411C549.443 30.71 546.371 34.3801 546.74 38.5384Z" fill="#EEEEEE"/>
<path d="M541.711 -18.152L542.732 -6.63669C543.101 -2.47839 546.771 0.59348 550.93 0.224525C555.088 -0.144431 558.16 -3.8145 557.791 -7.97279L556.769 -19.4881C556.4 -23.6464 552.73 -26.7183 548.572 -26.3494C544.414 -25.9804 541.342 -22.3103 541.711 -18.152Z" fill="#EEEEEE"/>
<path d="M550.994 -104.682L607.347 530.434C607.716 534.592 611.386 537.664 615.544 537.295C619.702 536.926 622.774 533.256 622.405 529.098L566.053 -106.018C565.684 -110.176 562.014 -113.248 557.856 -112.879C553.697 -112.51 550.625 -108.84 550.994 -104.682Z" fill="#EEEEEE"/>
<path d="M590.461 148.934L624.178 528.94C624.547 533.099 628.217 536.171 632.375 535.802C636.533 535.433 639.605 531.763 639.236 527.604L605.519 147.598C605.15 143.44 601.48 140.368 597.322 140.737C593.164 141.106 590.092 144.776 590.461 148.934Z" fill="#EEEEEE"/>
<path d="M580.4 35.5525L586.452 103.759C586.821 107.917 590.491 110.989 594.649 110.62C598.808 110.251 601.88 106.581 601.511 102.423L595.459 34.2164C595.09 30.0581 591.42 26.9863 587.261 27.3552C583.103 27.7242 580.031 31.3942 580.4 35.5525Z" fill="#EEEEEE"/>
<path d="M589.685 -50.9774L641.008 527.447C641.377 531.606 645.047 534.677 649.205 534.309C653.363 533.94 656.435 530.269 656.066 526.111L604.744 -52.3135C604.375 -56.4718 600.705 -59.5437 596.547 -59.1748C592.388 -58.8058 589.317 -55.1357 589.685 -50.9774Z" fill="#EEEEEE"/>
<path d="M629.15 202.638L635.202 270.845C635.571 275.003 639.241 278.075 643.399 277.706C647.558 277.337 650.63 273.667 650.261 269.509L644.209 201.302C643.84 197.144 640.17 194.072 636.011 194.441C631.853 194.81 628.781 198.48 629.15 202.638Z" fill="#EEEEEE"/>
<path d="M624.12 145.948L625.142 157.463C625.51 161.621 629.181 164.693 633.339 164.324C637.497 163.955 640.569 160.285 640.2 156.127L639.178 144.611C638.809 140.453 635.139 137.381 630.981 137.75C626.823 138.119 623.751 141.789 624.12 145.948Z" fill="#EEEEEE"/>
<path d="M619.09 89.2571L620.112 100.772C620.481 104.931 624.151 108.003 628.31 107.634C632.468 107.265 635.54 103.595 635.171 99.4364L634.149 87.921C633.78 83.7627 630.11 80.6909 625.952 81.0598C621.793 81.4288 618.722 85.0988 619.09 89.2571Z" fill="#EEEEEE"/>
<path d="M614.06 32.5657L615.082 44.0811C615.451 48.2394 619.121 51.3113 623.279 50.9423C627.438 50.5733 630.509 46.9033 630.14 42.745L629.119 31.2296C628.75 27.0713 625.08 23.9995 620.921 24.3684C616.763 24.7374 613.691 28.4074 614.06 32.5657Z" fill="#EEEEEE"/>
<path d="M618.316 -110.656L674.668 524.46C675.037 528.618 678.707 531.69 682.865 531.321C687.024 530.952 690.095 527.282 689.726 523.124L633.374 -111.992C633.005 -116.15 629.335 -119.222 625.177 -118.853C621.019 -118.484 617.947 -114.814 618.316 -110.656Z" fill="#EEEEEE"/>
<path d="M667.841 256.343L673.892 324.549C674.261 328.707 677.932 331.779 682.09 331.41C686.248 331.041 689.32 327.371 688.951 323.213L682.899 255.006C682.53 250.848 678.86 247.776 674.702 248.145C670.544 248.514 667.472 252.184 667.841 256.343Z" fill="#EEEEEE"/>
<path d="M662.811 199.652L663.833 211.167C664.202 215.325 667.872 218.397 672.03 218.028C676.189 217.659 679.26 213.989 678.891 209.831L677.87 198.316C677.501 194.157 673.831 191.085 669.672 191.454C665.514 191.823 662.442 195.493 662.811 199.652Z" fill="#EEEEEE"/>
<path d="M657.781 142.961L658.803 154.477C659.172 158.635 662.842 161.707 667 161.338C671.158 160.969 674.23 157.299 673.861 153.14L672.839 141.625C672.47 137.467 668.8 134.395 664.642 134.764C660.484 135.133 657.412 138.803 657.781 142.961Z" fill="#EEEEEE"/>
<path d="M652.751 86.2698L653.772 97.7852C654.141 101.943 657.811 105.015 661.97 104.646C666.128 104.277 669.2 100.607 668.831 96.4491L667.809 84.9337C667.44 80.7754 663.77 77.7036 659.612 78.0725C655.454 78.4415 652.382 82.1115 652.751 86.2698Z" fill="#EEEEEE"/>
<path d="M647.721 29.5794L648.743 41.0948C649.112 45.2531 652.782 48.3249 656.94 47.956C661.099 47.587 664.171 43.9169 663.802 39.7587L662.78 28.2433C662.411 24.085 658.741 21.0131 654.583 21.3821C650.424 21.751 647.352 25.4211 647.721 29.5794Z" fill="#EEEEEE"/>
<path d="M677.126 169.813L708.328 521.474C708.697 525.632 712.367 528.704 716.525 528.335C720.684 527.966 723.756 524.296 723.387 520.138L692.185 168.477C691.816 164.318 688.146 161.246 683.987 161.615C679.829 161.984 676.757 165.654 677.126 169.813Z" fill="#EEEEEE"/>
<path d="M657.005 -56.9504L673.117 124.638C673.486 128.796 677.156 131.868 681.314 131.499C685.473 131.13 688.545 127.46 688.176 123.302L672.064 -58.2865C671.695 -62.4448 668.025 -65.5167 663.866 -65.1478C659.708 -64.7788 656.636 -61.1087 657.005 -56.9504Z" fill="#EEEEEE"/>
<path d="M701.502 253.357L722.643 491.636C723.012 495.794 726.682 498.866 730.841 498.497C734.999 498.128 738.071 494.458 737.702 490.3L716.56 252.021C716.191 247.862 712.521 244.79 708.363 245.159C704.204 245.528 701.133 249.198 701.502 253.357Z" fill="#EEEEEE"/>
<path d="M696.471 196.665L697.493 208.181C697.862 212.339 701.532 215.411 705.69 215.042C709.849 214.673 712.921 211.003 712.552 206.845L711.53 195.329C711.161 191.171 707.491 188.099 703.333 188.468C699.174 188.837 696.102 192.507 696.471 196.665Z" fill="#EEEEEE"/>
<path d="M691.441 139.974L692.463 151.489C692.832 155.648 696.502 158.719 700.66 158.351C704.818 157.982 707.89 154.311 707.521 150.153L706.5 138.638C706.131 134.48 702.461 131.408 698.302 131.777C694.144 132.146 691.072 135.816 691.441 139.974Z" fill="#EEEEEE"/>
<path d="M686.411 83.2835L687.433 94.7989C687.801 98.9572 691.472 102.029 695.63 101.66C699.788 101.291 702.86 97.6211 702.491 93.4628L701.469 81.9474C701.1 77.7891 697.43 74.7172 693.272 75.0862C689.114 75.4552 686.042 79.1252 686.411 83.2835Z" fill="#EEEEEE"/>
<path d="M681.381 26.5921L682.402 38.1075C682.771 42.2658 686.441 45.3376 690.6 44.9687C694.758 44.5997 697.83 40.9296 697.461 36.7713L696.439 25.256C696.07 21.0977 692.4 18.0258 688.242 18.3948C684.083 18.7637 681.012 22.4338 681.381 26.5921Z" fill="#EEEEEE"/>
<path d="M705.756 110.136L741.988 518.488C742.357 522.647 746.027 525.718 750.186 525.35C754.344 524.981 757.416 521.311 757.047 517.152L720.815 108.8C720.446 104.642 716.776 101.57 712.617 101.939C708.459 102.308 705.387 105.978 705.756 110.136Z" fill="#EEEEEE"/>
<path d="M685.636 -116.628L701.748 64.96C702.117 69.1183 705.787 72.1902 709.945 71.8212C714.104 71.4522 717.175 67.7822 716.806 63.6239L700.695 -117.964C700.326 -122.123 696.656 -125.194 692.497 -124.825C688.339 -124.457 685.267 -120.786 685.636 -116.628Z" fill="#EEEEEE"/>
<path d="M735.16 250.37L751.272 431.958C751.641 436.116 755.311 439.188 759.47 438.819C763.628 438.45 766.7 434.78 766.331 430.622L750.219 249.034C749.85 244.875 746.18 241.804 742.022 242.173C737.863 242.542 734.792 246.212 735.16 250.37Z" fill="#EEEEEE"/>
<path d="M730.131 193.678L731.152 205.193C731.521 209.352 735.191 212.424 739.35 212.055C743.508 211.686 746.58 208.016 746.211 203.857L745.189 192.342C744.82 188.184 741.15 185.112 736.992 185.481C732.833 185.85 729.762 189.52 730.131 193.678Z" fill="#EEEEEE"/>
<path d="M725.101 136.988L726.123 148.503C726.492 152.661 730.162 155.733 734.32 155.364C738.479 154.995 741.55 151.325 741.181 147.167L740.16 135.652C739.791 131.493 736.121 128.421 731.962 128.79C727.804 129.159 724.732 132.829 725.101 136.988Z" fill="#EEEEEE"/>
<path d="M720.071 80.2962L721.093 91.8116C721.462 95.9699 725.132 99.0417 729.29 98.6728C733.448 98.3038 736.52 94.6337 736.151 90.4754L735.129 78.9601C734.761 74.8018 731.09 71.7299 726.932 72.0989C722.774 72.4678 719.702 76.1379 720.071 80.2962Z" fill="#EEEEEE"/>
<path d="M715.041 23.6058L716.062 35.1211C716.431 39.2794 720.101 42.3513 724.26 41.9823C728.418 41.6134 731.49 37.9433 731.121 33.785L730.099 22.2697C729.73 18.1114 726.06 15.0395 721.902 15.4085C717.744 15.7774 714.672 19.4475 715.041 23.6058Z" fill="#EEEEEE"/>
<path d="M744.446 163.841L770.618 458.811C770.987 462.969 774.657 466.041 778.815 465.672C782.974 465.303 786.046 461.633 785.677 457.474L759.505 162.504C759.136 158.346 755.466 155.274 751.307 155.643C747.149 156.012 744.077 159.682 744.446 163.841Z" fill="#EEEEEE"/>
<path d="M734.386 50.4578L740.437 118.664C740.806 122.822 744.476 125.894 748.635 125.525C752.793 125.156 755.865 121.486 755.496 117.328L749.444 49.1217C749.075 44.9634 745.405 41.8915 741.247 42.2605C737.089 42.6294 734.017 46.2995 734.386 50.4578Z" fill="#EEEEEE"/>
<path d="M724.326 -62.924L730.378 5.28226C730.747 9.44056 734.417 12.5124 738.575 12.1435C742.733 11.7745 745.805 8.10445 745.436 3.94615L739.385 -64.2601C739.016 -68.4184 735.346 -71.4903 731.187 -71.1213C727.029 -70.7524 723.957 -67.0823 724.326 -62.924Z" fill="#EEEEEE"/>
<path d="M768.822 247.383L769.844 258.898C770.213 263.057 773.883 266.129 778.041 265.76C782.199 265.391 785.271 261.721 784.902 257.562L783.88 246.047C783.512 241.889 779.841 238.817 775.683 239.186C771.525 239.555 768.453 243.225 768.822 247.383Z" fill="#EEEEEE"/>
<path d="M763.792 190.692L764.813 202.207C765.182 206.365 768.852 209.437 773.011 209.068C777.169 208.699 780.241 205.029 779.872 200.871L778.85 189.356C778.481 185.197 774.811 182.125 770.653 182.494C766.495 182.863 763.423 186.533 763.792 190.692Z" fill="#EEEEEE"/>
<path d="M758.761 134.001L759.783 145.517C760.152 149.675 763.822 152.747 767.98 152.378C772.139 152.009 775.211 148.339 774.842 144.181L773.82 132.665C773.451 128.507 769.781 125.435 765.623 125.804C761.464 126.173 758.392 129.843 758.761 134.001Z" fill="#EEEEEE"/>
<path d="M753.731 77.3099L754.753 88.8252C755.122 92.9835 758.792 96.0554 762.95 95.6864C767.108 95.3175 770.18 91.6474 769.811 87.4891L768.79 75.9738C768.421 71.8155 764.751 68.7436 760.592 69.1126C756.434 69.4815 753.362 73.1516 753.731 77.3099Z" fill="#EEEEEE"/>
<path d="M748.702 20.6195L749.724 32.1348C750.093 36.2931 753.763 39.365 757.921 38.996C762.079 38.6271 765.151 34.957 764.782 30.7987L763.76 19.2833C763.391 15.125 759.721 12.0532 755.563 12.4221C751.405 12.7911 748.333 16.4612 748.702 20.6195Z" fill="#EEEEEE"/>
<path d="M783.137 217.545L799.249 399.133C799.618 403.291 803.288 406.363 807.446 405.994C811.605 405.625 814.676 401.955 814.307 397.797L798.196 216.209C797.827 212.05 794.157 208.978 789.998 209.347C785.84 209.716 782.768 213.386 783.137 217.545Z" fill="#EEEEEE"/>
<path d="M773.077 104.162L779.129 172.368C779.498 176.526 783.168 179.598 787.326 179.229C791.484 178.86 794.556 175.19 794.187 171.032L788.136 102.826C787.767 98.6675 784.097 95.5956 779.938 95.9646C775.78 96.3336 772.708 100.004 773.077 104.162Z" fill="#EEEEEE"/>
<path d="M763.016 -9.21992L769.068 58.9864C769.437 63.1447 773.107 66.2165 777.266 65.8476C781.424 65.4786 784.496 61.8086 784.127 57.6503L778.075 -10.556C777.706 -14.7143 774.036 -17.7862 769.878 -17.4172C765.719 -17.0483 762.648 -13.3782 763.016 -9.21992Z" fill="#EEEEEE"/>
<path d="M802.482 244.397L813.563 369.294C813.932 373.452 817.602 376.524 821.761 376.155C825.919 375.786 828.991 372.116 828.622 367.958L817.54 243.061C817.171 238.902 813.501 235.83 809.343 236.199C805.184 236.568 802.113 240.238 802.482 244.397Z" fill="#EEEEEE"/>
<path d="M797.452 187.705L798.474 199.221C798.843 203.379 802.513 206.451 806.671 206.082C810.829 205.713 813.901 202.043 813.532 197.885L812.51 186.369C812.141 182.211 808.471 179.139 804.313 179.508C800.155 179.877 797.083 183.547 797.452 187.705Z" fill="#EEEEEE"/>
<path d="M792.422 131.015L793.443 142.53C793.812 146.689 797.482 149.76 801.641 149.392C805.799 149.023 808.871 145.352 808.502 141.194L807.48 129.679C807.111 125.521 803.441 122.449 799.283 122.818C795.124 123.187 792.053 126.857 792.422 131.015Z" fill="#EEEEEE"/>
<path d="M787.391 74.3236L788.413 85.8389C788.782 89.9972 792.452 93.0691 796.61 92.7001C800.769 92.3312 803.84 88.6611 803.472 84.5028L802.45 72.9874C802.081 68.8291 798.411 65.7573 794.252 66.1262C790.094 66.4952 787.022 70.1653 787.391 74.3236Z" fill="#EEEEEE"/>
<path d="M782.361 17.6321L783.383 29.1475C783.752 33.3058 787.422 36.3777 791.58 36.0087C795.738 35.6397 798.81 31.9697 798.441 27.8114L797.42 16.296C797.051 12.1377 793.381 9.06587 789.222 9.43483C785.064 9.80378 781.992 13.4738 782.361 17.6321Z" fill="#EEEEEE"/>
<path d="M821.827 271.248L832.909 396.146C833.278 400.304 836.948 403.376 841.106 403.007C845.265 402.638 848.337 398.968 847.968 394.809L836.886 269.912C836.517 265.754 832.847 262.682 828.688 263.051C824.53 263.42 821.458 267.09 821.827 271.248Z" fill="#EEEEEE"/>
<path d="M816.797 214.558L817.818 226.073C818.187 230.232 821.857 233.303 826.016 232.934C830.174 232.566 833.246 228.895 832.877 224.737L831.855 213.222C831.486 209.064 827.816 205.992 823.658 206.361C819.499 206.73 816.428 210.4 816.797 214.558Z" fill="#EEEEEE"/>
<path d="M811.767 157.867L812.789 169.383C813.158 173.541 816.828 176.613 820.986 176.244C825.145 175.875 828.216 172.205 827.848 168.047L826.826 156.531C826.457 152.373 822.787 149.301 818.628 149.67C814.47 150.039 811.398 153.709 811.767 157.867Z" fill="#EEEEEE"/>
<path d="M806.737 101.176L807.759 112.691C808.128 116.85 811.798 119.922 815.956 119.553C820.114 119.184 823.186 115.514 822.817 111.355L821.796 99.84C821.427 95.6817 817.756 92.6098 813.598 92.9788C809.44 93.3477 806.368 97.0178 806.737 101.176Z" fill="#EEEEEE"/>
<path d="M801.707 44.4847L802.728 56C803.097 60.1583 806.767 63.2302 810.926 62.8612C815.084 62.4923 818.156 58.8222 817.787 54.6639L816.765 43.1486C816.396 38.9903 812.726 35.9184 808.568 36.2874C804.41 36.6563 801.338 40.3264 801.707 44.4847Z" fill="#EEEEEE"/>
<path d="M796.676 -12.2067L797.698 -0.691374C798.067 3.46692 801.737 6.53879 805.895 6.16984C810.054 5.80088 813.126 2.13082 812.757 -2.02748L811.735 -13.5428C811.366 -17.7011 807.696 -20.773 803.538 -20.404C799.379 -20.0351 796.307 -16.365 796.676 -12.2067Z" fill="#EEEEEE"/>
<path d="M836.142 241.41L837.164 252.926C837.533 257.084 841.203 260.156 845.361 259.787C849.52 259.418 852.591 255.748 852.223 251.59L851.201 240.074C850.832 235.916 847.162 232.844 843.003 233.213C838.845 233.582 835.773 237.252 836.142 241.41Z" fill="#EEEEEE"/>
<path d="M831.112 184.719L832.134 196.234C832.503 200.393 836.173 203.465 840.331 203.096C844.489 202.727 847.561 199.057 847.192 194.898L846.171 183.383C845.802 179.225 842.131 176.153 837.973 176.522C833.815 176.891 830.743 180.561 831.112 184.719Z" fill="#EEEEEE"/>
<path d="M826.083 128.029L827.104 139.544C827.473 143.702 831.143 146.774 835.302 146.405C839.46 146.036 842.532 142.366 842.163 138.208L841.141 126.693C840.772 122.534 837.102 119.462 832.944 119.831C828.786 120.2 825.714 123.87 826.083 128.029Z" fill="#EEEEEE"/>
<path d="M821.052 71.3372L822.074 82.8526C822.443 87.0109 826.113 90.0827 830.271 89.7138C834.43 89.3448 837.502 85.6748 837.133 81.5165L836.111 70.0011C835.742 65.8428 832.072 62.771 827.914 63.1399C823.755 63.5089 820.683 67.1789 821.052 71.3372Z" fill="#EEEEEE"/>
<path d="M816.022 14.6458L817.044 26.1612C817.413 30.3195 821.083 33.3913 825.241 33.0224C829.399 32.6534 832.471 28.9834 832.102 24.8251L831.081 13.3097C830.712 9.15141 827.042 6.07954 822.883 6.4485C818.725 6.81746 815.653 10.4875 816.022 14.6458Z" fill="#EEEEEE"/>
<path d="M850.457 211.571L856.509 279.777C856.878 283.936 860.548 287.008 864.706 286.639C868.864 286.27 871.936 282.6 871.567 278.441L865.515 210.235C865.146 206.077 861.476 203.005 857.318 203.374C853.16 203.743 850.088 207.413 850.457 211.571Z" fill="#EEEEEE"/>
<path d="M845.426 154.88L846.448 166.396C846.817 170.554 850.487 173.626 854.645 173.257C858.804 172.888 861.876 169.218 861.507 165.059L860.485 153.544C860.116 149.386 856.446 146.314 852.288 146.683C848.129 147.052 845.057 150.722 845.426 154.88Z" fill="#EEEEEE"/>
<path d="M840.397 98.1898L841.419 109.705C841.788 113.863 845.458 116.935 849.616 116.566C853.774 116.197 856.846 112.527 856.477 108.369L855.456 96.8537C855.087 92.6954 851.417 89.6235 847.258 89.9924C843.1 90.3614 840.028 94.0315 840.397 98.1898Z" fill="#EEEEEE"/>
<path d="M830.337 -15.1926L836.389 53.0137C836.758 57.172 840.428 60.2439 844.586 59.8749C848.744 59.506 851.816 55.8359 851.447 51.6776L845.395 -16.5287C845.026 -20.687 841.356 -23.7589 837.198 -23.3899C833.04 -23.0209 829.968 -19.3509 830.337 -15.1926Z" fill="#EEEEEE"/>
<path d="M874.833 295.115L875.854 306.63C876.223 310.788 879.893 313.86 884.052 313.491C888.21 313.122 891.282 309.452 890.913 305.294L889.891 293.778C889.522 289.62 885.852 286.548 881.694 286.917C877.536 287.286 874.464 290.956 874.833 295.115Z" fill="#EEEEEE"/>
<path d="M869.802 238.423L870.824 249.939C871.193 254.097 874.863 257.169 879.021 256.8C883.18 256.431 886.252 252.761 885.883 248.602L884.861 237.087C884.492 232.929 880.822 229.857 876.664 230.226C872.505 230.595 869.433 234.265 869.802 238.423Z" fill="#EEEEEE"/>
<path d="M864.772 181.733L865.794 193.248C866.163 197.406 869.833 200.478 873.991 200.109C878.149 199.74 881.221 196.07 880.852 191.912L879.831 180.397C879.462 176.238 875.792 173.166 871.633 173.535C867.475 173.904 864.403 177.574 864.772 181.733Z" fill="#EEEEEE"/>
<path d="M859.742 125.041L860.764 136.557C861.133 140.715 864.803 143.787 868.961 143.418C873.119 143.049 876.191 139.379 875.822 135.221L874.8 123.705C874.431 119.547 870.761 116.475 866.603 116.844C862.445 117.213 859.373 120.883 859.742 125.041Z" fill="#EEEEEE"/>
<path d="M849.682 11.6595L850.704 23.1748C851.073 27.3331 854.743 30.405 858.901 30.036C863.06 29.6671 866.132 25.997 865.763 21.8387L864.741 10.3234C864.372 6.16509 860.702 3.09322 856.543 3.46217C852.385 3.83113 849.313 7.50119 849.682 11.6595Z" fill="#EEEEEE"/>
<path d="M889.148 265.276L900.229 390.173C900.598 394.331 904.268 397.403 908.427 397.034C912.585 396.665 915.657 392.995 915.288 388.837L904.206 263.94C903.837 259.781 900.167 256.709 896.009 257.078C891.85 257.447 888.779 261.117 889.148 265.276Z" fill="#EEEEEE"/>
<path d="M884.118 208.584L885.14 220.1C885.509 224.258 889.179 227.33 893.337 226.961C897.495 226.592 900.567 222.922 900.198 218.764L899.176 207.248C898.807 203.09 895.137 200.018 890.979 200.387C886.821 200.756 883.749 204.426 884.118 208.584Z" fill="#EEEEEE"/>
<path d="M879.088 151.894L880.109 163.409C880.478 167.568 884.148 170.639 888.307 170.27C892.465 169.901 895.537 166.231 895.168 162.073L894.146 150.558C893.777 146.399 890.107 143.328 885.949 143.697C881.79 144.066 878.719 147.736 879.088 151.894Z" fill="#EEEEEE"/>
<path d="M869.027 38.5115L875.079 106.718C875.448 110.876 879.118 113.948 883.276 113.579C887.435 113.21 890.507 109.54 890.138 105.382L884.086 37.1754C883.717 33.0171 880.047 29.9452 875.888 30.3142C871.73 30.6832 868.658 34.3532 869.027 38.5115Z" fill="#EEEEEE"/>
<path d="M863.998 -18.1794L865.019 -6.66403C865.388 -2.50573 869.058 0.566137 873.217 0.197181C877.375 -0.171775 880.447 -3.84184 880.078 -8.00014L879.056 -19.5155C878.687 -23.6738 875.017 -26.7457 870.859 -26.3767C866.701 -26.0077 863.629 -22.3377 863.998 -18.1794Z" fill="#EEEEEE"/>
<path d="M908.492 292.127L909.514 303.643C909.883 307.801 913.553 310.873 917.711 310.504C921.869 310.135 924.941 306.465 924.572 302.307L923.55 290.791C923.181 286.633 919.511 283.561 915.353 283.93C911.195 284.299 908.123 287.969 908.492 292.127Z" fill="#EEEEEE"/>
<path d="M903.463 235.437L904.484 246.952C904.853 251.11 908.523 254.182 912.682 253.813C916.84 253.444 919.912 249.774 919.543 245.616L918.521 234.101C918.152 229.942 914.482 226.871 910.324 227.24C906.165 227.608 903.094 231.279 903.463 235.437Z" fill="#EEEEEE"/>
<path d="M898.432 178.745L899.454 190.261C899.823 194.419 903.493 197.491 907.651 197.122C911.81 196.753 914.882 193.083 914.513 188.925L913.491 177.409C913.122 173.251 909.452 170.179 905.293 170.548C901.135 170.917 898.063 174.587 898.432 178.745Z" fill="#EEEEEE"/>
<path d="M888.372 65.3636L889.393 76.8789C889.762 81.0372 893.432 84.1091 897.591 83.7401C901.749 83.3712 904.821 79.7011 904.452 75.5428L903.43 64.0275C903.061 59.8692 899.391 56.7973 895.233 57.1663C891.075 57.5352 888.003 61.2053 888.372 65.3636Z" fill="#EEEEEE"/>
<path d="M883.342 8.67316L884.364 20.1885C884.733 24.3468 888.403 27.4187 892.561 27.0497C896.72 26.6808 899.792 23.0107 899.423 18.8524L898.401 7.33706C898.032 3.17876 894.362 0.106888 890.204 0.475844C886.045 0.8448 882.973 4.51486 883.342 8.67316Z" fill="#EEEEEE"/>
<path d="M917.777 205.597L923.829 273.804C924.198 277.962 927.868 281.034 932.026 280.665C936.185 280.296 939.257 276.626 938.888 272.468L932.836 204.261C932.467 200.103 928.797 197.031 924.638 197.4C920.48 197.769 917.408 201.439 917.777 205.597Z" fill="#EEEEEE"/>
<path d="M912.748 148.907L913.769 160.422C914.138 164.58 917.808 167.652 921.967 167.283C926.125 166.914 929.197 163.244 928.828 159.086L927.806 147.57C927.437 143.412 923.767 140.34 919.609 140.709C915.451 141.078 912.379 144.748 912.748 148.907Z" fill="#EEEEEE"/>
<path d="M907.717 92.2161L908.739 103.731C909.108 107.89 912.778 110.962 916.936 110.593C921.095 110.224 924.167 106.554 923.798 102.395L922.776 90.88C922.407 86.7217 918.737 83.6499 914.579 84.0188C910.42 84.3878 907.348 88.0578 907.717 92.2161Z" fill="#EEEEEE"/>
<path d="M902.687 35.5257L903.709 47.041C904.078 51.1993 907.748 54.2712 911.906 53.9023C916.065 53.5333 919.136 49.8632 918.767 45.7049L917.746 34.1896C917.377 30.0313 913.707 26.9594 909.548 27.3284C905.39 27.6973 902.318 31.3674 902.687 35.5257Z" fill="#EEEEEE"/>
<path d="M942.153 289.141L943.175 300.656C943.544 304.815 947.214 307.886 951.372 307.517C955.53 307.149 958.602 303.478 958.233 299.32L957.212 287.805C956.843 283.647 953.173 280.575 949.014 280.944C944.856 281.313 941.784 284.983 942.153 289.141Z" fill="#EEEEEE"/>
<path d="M937.123 232.45L938.144 243.965C938.513 248.123 942.183 251.195 946.342 250.826C950.5 250.457 953.572 246.787 953.203 242.629L952.181 231.113C951.812 226.955 948.142 223.883 943.984 224.252C939.826 224.621 936.754 228.291 937.123 232.45Z" fill="#EEEEEE"/>
<path d="M932.092 175.759L933.114 187.274C933.483 191.433 937.153 194.505 941.311 194.136C945.47 193.767 948.542 190.097 948.173 185.938L947.151 174.423C946.782 170.265 943.112 167.193 938.954 167.562C934.795 167.931 931.723 171.601 932.092 175.759Z" fill="#EEEEEE"/>
<path d="M917.003 5.68684L918.024 17.2022C918.393 21.3605 922.063 24.4323 926.222 24.0634C930.38 23.6944 933.452 20.0244 933.083 15.8661L932.061 4.35073C931.692 0.192429 928.022 -2.87944 923.864 -2.51048C919.706 -2.14153 916.634 1.52854 917.003 5.68684Z" fill="#EEEEEE"/>
<path d="M946.407 145.92L952.459 214.126C952.828 218.284 956.498 221.356 960.656 220.987C964.815 220.618 967.886 216.948 967.517 212.79L961.466 144.584C961.097 140.425 957.427 137.353 953.268 137.722C949.11 138.091 946.038 141.761 946.407 145.92Z" fill="#EEEEEE"/>
<path d="M941.378 89.2298L942.399 100.745C942.768 104.903 946.438 107.975 950.597 107.606C954.755 107.237 957.827 103.567 957.458 99.409L956.436 87.8937C956.067 83.7354 952.397 80.6635 948.239 81.0325C944.081 81.4014 941.009 85.0715 941.378 89.2298Z" fill="#EEEEEE"/>
<path d="M936.348 32.5384L937.37 44.0537C937.739 48.212 941.409 51.2839 945.567 50.915C949.726 50.546 952.798 46.8759 952.429 42.7176L951.407 31.2023C951.038 27.044 947.368 23.9721 943.21 24.3411C939.051 24.71 935.979 28.3801 936.348 32.5384Z" fill="#EEEEEE"/>
</svg>
